<svg id="Layer_1" data-name="Layer 1" xmlns="http://www.w3.org/2000/svg" viewBox="0 0 811.92 298.37"><defs><style>.cls-1{fill:#fff;}</style></defs><path class="cls-1" d="M414.76,8.26c2.74,12.79,3.82,24,8.66,36.33,7.63,9,26.69,2.85,25,20.16,3.35,7.32,8.67,14.14,9.74,22.44,6,3.88,9.8-5.63,15.31-8.37,3.2,0,4.88-2.76,7.63-4.42,14.64,9.49,25-9.55,36-15.19a24,24,0,0,1,19-12.2c14.59,16.24,33.66,23.62,46.17,39.22,9.79-1.09,15.77,10.14,23.34,10.15.62,2.81,2.17,4.42,3.85,6.15,9.25-15.63,24.06-25.15,35.44-38,4.35-4.41,12-2.21,12.59-10,2.14.56,2.13-2.2,3.24-3.39,7.59-1.68,15.8-3.86,20.7-10.59,7.65-2.18,6.43,7.31,11.34,10.65,5.46,5.07,6.63,15.67,14.16,18,6.63.58,12.62-6.19,19.07-1.7,4.36,5,4.36,10.63,10.34,14.08,0,3.87,4.36,3.39,6.52,5,9.84,1.68,16.4-5.46,26.2-3.79C772.33,78.2,776.18,81.6,781,81c8.71,5.61,21.21,7.89,25.6,20.16,2.22,5.09,4.33,10.12,5.34,15.63l-.2,134.14H736.65c-.43-36.34,0-69.61,0-104.16,0-6-6.77-13.53-13.59-13.53-6.18,0-13.6,6.81-13.6,13.53V250.93H633.88V189.79c-6.61,29.13-32.43,63.1-95,63.1-46.31,0-73.56-18.79-86.3-38.25v30.21c-12.2,4-18.64,8.83-51.42,8.83-70.93,0-58.36-82.4-58.36-118.08H324.21c3.25,15.64,4.25,34.64,4.25,52.56H225.54c0,8.32-.32,25.32,40.14,25.32,21.22,0,45.11-6.41,50.79-10.24V244.6c-14,4-35.4,9.86-75.61,9.86-58,0-90.49-36-90.49-86.9,0-33.25,13.77-48.27,17.07-53.76H134.55V250.93H54.25V113.8H.41V70.18C5.84,68,5.35,61.77,8,57.26c7.08-2.18,11.5-13.89,20.2-8.9,16.92-3.88,24.58-18.36,37-27.31,8.21-1.14,16.37,9,22.92.05C99.59,20,104.48,9.37,112.64,3.25c12,4.46,12.54,21.81,22.8,29.67l0,5c10.28,11.72,16.33,23.52,26.58,33a81.28,81.28,0,0,1,17.43-4.45c10.45,5.66,13.07-7.17,21.26-11.09,2.72-5,10.93-5.63,13.14-11.72,6-5,14.7-10.05,21.71-13.41,9.3,8.93,17,14.55,20.16,26.88,12,4,8.67,23.57,25,20.7,7,3.95,11.39,10.65,17.87,16.84,7.68-2.75,4.95-15,14.75-14.47,6.57-10.61,16.36-18.43,23.38-29.08,3.89-1.67,2.23,2.83,4.42,3.39.59,2.75,0,6.68,3.22,7.27,6.58-1.67,1.66-9.54,2.25-14.56,4.9-7.28,12.57-20.12,23.39-19.48C382.12,18.21,392,7.14,405.48.36c6.57-2.18,4.94,6.19,9.28,7.9M243.86,122.7c-15.48,0-18.77,17.09-18.77,31.14l37.54.08C262.63,139.79,260,122.7,243.86,122.7Zm295,8.75c-12.07,0-16.2,11.88-16.2,37.33,0,25.94,4.13,37.32,16.2,37.32s16.24-11.38,16.24-37.32C555.07,143.09,550.72,131.45,538.83,131.45ZM417,135.7c0,8.68-8.25,49.76,6.65,63.74,5.84,5.47,15.81,1.82,21.88.13-4.4-19.66-6-44.14-.44-63.77C436.09,135.8,426.32,135.7,417,135.7Z"/><path class="cls-1" d="M15.8,282.24l0,4.19h5.28l0,4.57a4.54,4.54,0,0,1-1.73.85,12.13,12.13,0,0,1-3.16.43h-.4a7.05,7.05,0,0,1-5.16-1.85c-1.23-1.15-1.86-3.37-1.88-6.59v-.41c0-3,.83-5.19,2.43-6.5a10.21,10.21,0,0,1,6.61-2h.13a17.65,17.65,0,0,1,3.92.42c1.22.31,2.28.64,3.15.91l.53.17,0-4.88-.23-.11a8.31,8.31,0,0,0-1.85-.52l-1.29-.28a23.08,23.08,0,0,0-4.76-.39H17c-5.31,0-9.5,1.16-12.44,3.43A10.92,10.92,0,0,0,0,282.74v1.43c0,4.2,1.32,7.33,4.1,9.56S10.5,297,15.17,297h.64a23,23,0,0,0,7.76-1.2,12.61,12.61,0,0,0,4.92-3.17l.1-.12.05-10.21Z"/><path class="cls-1" d="M78.05,296.27c0-4.29-.79-7.56-2.28-9.71A9.4,9.4,0,0,0,71.28,283,9.83,9.83,0,0,0,75,281.68a4.46,4.46,0,0,0,2.08-3.84v-1.37c0-1.5-.74-2.84-2.34-4.22-1.41-1-3.78-1.55-7.24-1.55l-14.49,0-.07,26,8.78,0,0-11.35h1.47a4.74,4.74,0,0,1,4.43,2.48c1,1.72,1.57,4.6,1.6,8.56v.4l8.78-.06Zm-9.64-18.61v.69a1.84,1.84,0,0,1-1.09,1.87,7,7,0,0,1-3.8.73l-1.77,0,0-5.93,2.43,0a6.05,6.05,0,0,1,3.23.67A1.94,1.94,0,0,1,68.41,277.66Z"/><path class="cls-1" d="M123.5,270.76h-7.94l-12.3,26,7.41,0,2.6-6h11.17l2.58,6.05h9.11Zm-1.09,15.48h-7.16l3.49-7.87Z"/><polygon class="cls-1" points="179.22 270.87 171.88 287.7 164.54 270.85 155.13 270.85 167.02 296.88 174.29 296.91 186.64 270.9 179.22 270.87"/><polygon class="cls-1" points="212.72 270.97 212.66 296.89 221.45 296.97 221.47 270.98 212.72 270.97"/><polygon class="cls-1" points="250.12 271.05 250.08 275.66 257.96 275.68 257.91 297.04 266.77 297.06 266.8 275.69 274.38 275.7 274.42 271.07 250.12 271.05"/><polygon class="cls-1" points="323.71 271.18 315.78 281.06 308.15 271.12 297.77 271.11 310.18 286.77 310.17 297.14 318.88 297.16 319 286.27 331.1 271.14 323.71 271.18"/><path class="cls-1" d="M416.62,287.21a9.39,9.39,0,0,0-4.5-3.54,9.08,9.08,0,0,0,3.74-1.36,4.61,4.61,0,0,0,2-3.83v-1.36a5.13,5.13,0,0,0-2.32-4.16c-1.29-1.1-3.57-1.62-7.17-1.62l-14.46,0-.08,26h8.67l.11-11.35,1.5,0a4.49,4.49,0,0,1,4.4,2.41c1,1.62,1.49,4.32,1.58,8.5v.39l8.66,0v-.4C418.8,292.47,418.1,289.29,416.62,287.21Zm-11.79-11.56a7.11,7.11,0,0,1,3.35.65,2.08,2.08,0,0,1,1.06,2.08v.67a1.89,1.89,0,0,1-1.11,1.86,7.6,7.6,0,0,1-3.8.64l-1.74,0v-5.91Z"/><polygon class="cls-1" points="459.67 292.89 459.7 286.48 470.17 286.55 470.14 281.97 459.74 281.93 459.7 276.04 473.12 276.05 473.15 271.44 450.89 271.4 450.81 297.38 474.04 297.42 474.08 292.85 459.67 292.89"/><path class="cls-1" d="M529.34,284.81a17.51,17.51,0,0,0-6.88-3.21,34.33,34.33,0,0,1-6.09-1.9,2.41,2.41,0,0,1-.89-1.82c0-.51.34-.92,1.17-1.45a9.48,9.48,0,0,1,3.81-.61h.83a27.7,27.7,0,0,1,4,.24,28.91,28.91,0,0,1,3.84.59l.48.1.06-4.55-.28-.09a22.33,22.33,0,0,0-3.35-.59,28.94,28.94,0,0,0-5.12-.38h-.48c-4,0-7.18.66-9.6,2s-3.68,3.2-3.67,5.31a6.13,6.13,0,0,0,2.3,5.07,16.38,16.38,0,0,0,6.19,3c3.27,1,5.24,1.76,5.83,2.24a2.13,2.13,0,0,1,.93,1.66,2.17,2.17,0,0,1-1.26,2.12,12.4,12.4,0,0,1-4.63.67h-.73a27.31,27.31,0,0,1-5.37-.52,16.35,16.35,0,0,1-4.13-1l-.57-.27,0,5.28.29.08c1.15.3,2.43.51,4,.77l.34,0a50.53,50.53,0,0,0,6.13.36h.67a23,23,0,0,0,10.24-2,6.84,6.84,0,0,0,1.87-11.18Z"/><polygon class="cls-1" points="586.27 293.11 571.91 293.03 571.9 286.75 582.43 286.68 582.4 282.11 571.94 282.13 571.96 276.23 585.38 276.26 585.42 271.65 563.2 271.61 563.19 297.6 586.3 297.63 586.27 293.11"/><path class="cls-1" d="M634.77,271.71h-8l-12.31,26,7.32,0,2.68-6.09,11.11,0,2.75,6.06h8.92Zm-1.18,15.46h-7.22l3.53-7.84Z"/><path class="cls-1" d="M697.42,287.66a10.18,10.18,0,0,0-4.56-3.51,8.14,8.14,0,0,0,3.71-1.32,4.61,4.61,0,0,0,2.12-3.83v-1.34a5.6,5.6,0,0,0-2.27-4.25c-1.42-1.06-3.78-1.57-7.44-1.61l-14.42,0,0,26.06h8.83l.06-11.36h1.49a4.69,4.69,0,0,1,4.44,2.48c.71,1.23,1.55,3.71,1.58,8.49v.4h8.68v-.4C699.61,293.16,698.88,289.88,697.42,287.66Zm-14-11.53,2.3,0a7.1,7.1,0,0,1,3.25.6,2.24,2.24,0,0,1,1,2v.73a1.93,1.93,0,0,1-1,1.85,8.6,8.6,0,0,1-3.91.71h-1.77Z"/><path class="cls-1" d="M755.13,292.6a30.11,30.11,0,0,1-3,.69,20.31,20.31,0,0,1-4.52.35,8.38,8.38,0,0,1-5.78-2c-1.43-1.41-2.11-3.48-2.13-6.5v-.34a8.76,8.76,0,0,1,2.2-6.35,9.11,9.11,0,0,1,6.4-2.25h.5a26.17,26.17,0,0,1,3.62.21l.64.15a9.53,9.53,0,0,1,2,.58l.58.3,0-4.83-.28-.09a18.9,18.9,0,0,0-3.09-.72,30,30,0,0,0-4.5-.25h-.63c-4.77,0-8.61,1.16-11.74,3.47a11.22,11.22,0,0,0-4.72,9.48l-.05,1a11,11,0,0,0,4.66,9.65c3.12,2.17,7,3.23,11.88,3.24h0a33.21,33.21,0,0,0,5.1-.41,11.68,11.68,0,0,0,3.12-.78l.23-.11,0-4.63Z"/><polygon class="cls-1" points="802.42 272.03 802.35 282.52 794.28 282.48 794.32 272.04 785.56 272.03 785.47 298.01 794.26 298.02 794.25 287.18 802.37 287.22 802.4 298.08 811.2 298.02 811.2 272.03 802.42 272.03"/></svg>