<?xml version="1.0" encoding="utf-8"?>
<!-- Generator: Adobe Illustrator 26.5.0, SVG Export Plug-In . SVG Version: 6.00 Build 0)  -->
<svg version="1.1" id="Layer_1" xmlns="http://www.w3.org/2000/svg" xmlns:xlink="http://www.w3.org/1999/xlink" x="0px" y="0px"
	 viewBox="0 0 437.8 128.3" style="enable-background:new 0 0 437.8 128.3;" xml:space="preserve">
<style type="text/css">
	.st0{fill:#FFFFFF;}
</style>
<path class="st0" d="M215.8,18.4c-0.7-1.5-1.5-2.9-2.6-3.9s-2.4-1.9-3.8-2.4c-1.4-0.6-2.9-0.9-4.4-0.9h-80.1c-1.6,0-3,0.3-4.4,0.8
	c-1.4,0.6-2.6,1.3-3.7,2.4c-1.1,1.1-2,2.3-2.6,3.9c-0.7,1.5-1,3.3-1,5.2v31.8c0,2,0.3,3.8,1,5.3c0.7,1.5,1.5,2.8,2.6,3.8
	c1.1,1.1,2.3,1.8,3.7,2.4s2.9,0.8,4.4,0.8H205c1.5,0,2.9-0.3,4.4-0.8c1.4-0.5,2.7-1.3,3.8-2.4c1.1-1,2-2.3,2.6-3.8
	c0.7-1.5,1-3.3,1-5.3V23.5C216.8,21.7,216.5,20,215.8,18.4L215.8,18.4z M196.1,53.8h-38.8v4c-0.4-0.5-0.6-0.8-0.9-1
	c-0.3-0.3-0.5-0.6-0.8-0.9c-0.2,0.3-0.5,0.7-0.9,1.3c-0.8,0-1.9,0-3.1,0c-0.2,0-0.4,0.2-0.6,0.2c-0.3,0.1-0.6,0.2-0.9,0.3
	c-0.5,0.1-1.1,0.2-1.6,0.3c-0.1,0.2-0.1,0.3-0.2,0.4c-0.2-0.6-0.5-1.2-0.7-1.9c-0.2-0.7-0.2-1.3-1.2-1.3c-0.2,0-0.8-0.5-0.7-0.7
	c0.3-1.2-0.7-1.8-1-2.7c-0.2-0.5-0.3-1.2-0.5-1.7c-0.2-0.5-0.5-1-0.8-1.5c-0.6,0.6-1.2,1.2-1.7,1.6c-1.3-0.8-1.5-1.7-0.7-2.9
	c0.1-0.1,0.2-0.3,0.2-0.4c-0.8-1.8,0.1-3.4,0.4-5.1c0-0.1,0-0.2-0.1-0.2c-1.4-0.1-2.2-0.8-3-2c-0.7-1.2-1.9-2.1-2.9-3.2
	c-0.4-0.4-0.6-1-0.8-1.5c-0.2-0.6-0.3-1.4-0.7-1.9c-0.7-0.8-0.9-1.7-0.9-2.8c0-2,0-3.9,0-6h62.6L196.1,53.8L196.1,53.8z"/>
<path class="st0" d="M97.8,11.2c1.5,0,2.9,0.3,4.4,0.9s2.7,1.4,3.8,2.4c1.1,1.1,2,2.4,2.6,3.9c0.7,1.6,1,3.3,1,5.1v8
	c0,1.8-0.5,3.4-1.4,4.8c-0.9,1.4-1.9,2.5-2.8,3.1c0.9,0.5,1.9,1.4,2.8,2.6c0.9,1.2,1.4,2.7,1.4,4.7v8.6c0,1.9-0.3,3.6-1,5.1
	c-0.7,1.5-1.5,2.8-2.6,3.9c-1.1,1.1-2.3,1.9-3.8,2.4c-1.4,0.6-2.9,0.9-4.4,0.9H5.8V11.2H97.8z M18.3,23.5v9.7h74.3
	c1.2,0,2.2-0.3,3.1-0.8c0.9-0.5,1.3-1.6,1.3-3.1V28c0-1.6-0.4-2.8-1.2-3.4c-0.8-0.7-1.9-1-3.3-1C92.5,23.5,18.3,23.5,18.3,23.5z
	 M18.3,45.5v9.8h74.4c1.4,0,2.5-0.2,3.2-0.6s1.1-1.5,1.1-3.1v-1.4c0-1.5-0.5-2.7-1.4-3.5s-2-1.2-3.2-1.2L18.3,45.5L18.3,45.5z"/>
<path class="st0" d="M316.7,12c1.4,0.6,2.7,1.4,3.8,2.4s2,2.4,2.6,3.9s1,3.3,1,5.1v31.8c0,2-0.3,3.8-1,5.3s-1.5,2.8-2.6,3.8
	c-1.1,1.1-2.4,1.8-3.8,2.4s-2.9,0.8-4.4,0.8h-91.9V11.2h91.9C313.8,11.2,315.2,11.5,316.7,12 M310.3,53.9c0.9-1,1.3-2.2,1.3-3.8
	V28.8c0-1.5-0.4-2.8-1.1-3.8c-0.7-1-1.8-1.5-3.2-1.5h-74.4v31.8h74.3C308.4,55.3,309.4,54.8,310.3,53.9"/>
<polygon class="st0" points="340.2,55.3 431.4,55.3 431.4,67.7 327.7,67.7 327.7,11.2 431.4,11.2 431.4,23.5 340.2,23.5 340.2,33.2 
	431.4,33.2 431.4,45.5 340.2,45.5 "/>
<polygon class="st0" points="110,71.8 110,128.3 97.5,128.3 97.5,85.6 57.6,122.5 17.7,85.6 17.7,128.3 5.3,128.3 5.3,71.8 
	19.5,71.8 57.6,107.5 95.8,71.8 "/>
<rect x="114.5" y="71.8" class="st0" width="12.6" height="56.5"/>
<polygon class="st0" points="143.5,116 173.1,116 173.1,128.3 131,128.3 131,71.8 143.5,71.8 "/>
<polygon class="st0" points="189,116 218.6,116 218.6,128.3 176.5,128.3 176.5,71.8 189,71.8 "/>
<polygon class="st0" points="234,116 325.2,116 325.2,128.3 221.5,128.3 221.5,71.8 325.2,71.8 325.2,84.2 234,84.2 234,93.8 
	325.2,93.8 325.2,106.2 234,106.2 "/>
<path class="st0" d="M420.7,71.8c1.5,0,2.9,0.3,4.4,0.9s2.7,1.4,3.8,2.4c1.1,1.1,2,2.3,2.6,3.9s1,3.3,1,5.1v9.7c0,3.3-0.8,6-2.5,8
	c-1.7,2-3.8,3.3-6.2,4l8.9,22.5h-12.7l-9.9-22.1h-68.7v22.1h-12.5V71.8H420.7L420.7,71.8z M341.3,84.2v9.7h74.3
	c1.2,0,2.2-0.2,3.1-0.8c0.9-0.5,1.3-1.5,1.3-3.1v-1.3c0-1.6-0.4-2.8-1.2-3.5c-0.8-0.7-1.9-1.1-3.3-1.1H341.3L341.3,84.2z"/>
<path class="st0" d="M196.1,39.5v14.4h-38.8v4c-0.4-0.5-0.6-0.8-0.9-1c-0.3-0.3-0.5-0.6-0.8-0.9c-0.2,0.3-0.5,0.7-0.9,1.3
	c-0.8,0-1.9,0-3.1,0c-0.2,0-0.4,0.2-0.6,0.2c-0.3,0.1-0.6,0.2-0.9,0.3c-0.5,0.1-1.1,0.2-1.6,0.3c-0.1,0.2-0.1,0.3-0.2,0.4
	c-0.2-0.6-0.5-1.2-0.7-1.9c-0.2-0.7-0.2-1.3-1.2-1.3c-0.2,0-0.8-0.5-0.7-0.7c0.3-1.2-0.7-1.8-1-2.7c-0.2-0.5-0.3-1.2-0.5-1.7
	c-0.2-0.5-0.5-1-0.8-1.5c-0.6,0.6-1.2,1.2-1.7,1.6c-1.3-0.8-1.5-1.7-0.7-2.9c0.1-0.1,0.2-0.3,0.2-0.4c-0.8-1.8,0.1-3.4,0.4-5.1
	c0-0.1,0-0.2-0.1-0.2c-1.4-0.1-2.2-0.8-3-2c-0.1-0.1-0.2-0.2-0.3-0.3l-25.3,0v16c0,2,0.3,3.8,1,5.3c0.7,1.5,1.5,2.8,2.6,3.8
	c1.1,1.1,2.3,1.8,3.7,2.4s2.9,0.8,4.4,0.8H205c1.5,0,2.9-0.3,4.4-0.8c1.4-0.5,2.7-1.3,3.8-2.4c1.1-1,2-2.3,2.6-3.8
	c0.7-1.5,1-3.3,1-5.3V39.5L196.1,39.5L196.1,39.5z"/>
</svg>
