<?xml version="1.0" encoding="UTF-8"?><svg id="Layer_1" xmlns="http://www.w3.org/2000/svg" viewBox="0 0 720.02 129.85"><defs><style>.cls-1{fill:#fff;}</style></defs><path class="cls-1" d="M719.13,31.59h-25.56c-.46-.03-.85,.31-.89,.77h0c0,.5,.39,.9,.89,.91h0c8.56,.09,10.18,11,5.91,20.88l-1.91,4.5c-1.4,3.29-5.21,4.82-8.5,3.42-1.54-.66-2.76-1.88-3.42-3.42-9.46-21.47-7-29.41-23.56-30.45-10.62-.67-18.54,12.87-19.63,13.76s-2.69,0-2.74-2v-5.49c-.03-1.12-.96-2.01-2.08-2h-.36l-25.9,4.73s-1.14,.13-1,1,1.27,.75,1.27,.75c5.15-.88,6.11,.55,6.08,8.54v11.61h0v1.1c-.33,1.24-.84,2.43-1.51,3.53-4.77,10.27-11.75,19.58-20.09,20.2-1,0-7.37,1.08-12.93-2.78-6.19-4.32-8.67-13-9.38-21.14-.06-.79,.53-1.49,1.32-1.55,0,0,0,0,0,0h34.71c1.42,0,1.48-.63,1.42-1.41-.74-9.84-9.24-26.4-27.42-26.46-15.13,.09-30.45,13.3-30.62,33.48,0,2.24,.24,4.48,.69,6.68h0c.09,.44,.2,.87,.3,1.31,.03,.2,.08,.39,.16,.58,.06,.2,.1,.37,.16,.55,3.6,12.2,13.78,21.32,26.3,23.57,2.05,.41,4.15,.6,6.24,.57,16.25-.43,22.58-8.53,27.91-15.8,.89-1.2,1.64-2.38,2.31-3.5h0c.09-.16,.42,0,.42,.16v5.41c0,6.82-1.5,10.93-6.6,11-.47-.08-.92,.25-1,.72,0,0,0,.02,0,.03,0,.05,0,.09,0,.14,0,.52,.39,.95,.9,1h35c.5,0,.9-.4,.9-.9s-.4-.9-.9-.9h0c-5.09,0-6.49-4.17-6.46-12.12l.08-22.52c-.15-4.05,1.19-8.01,3.77-11.13l.15-.17c1.58-1.84,3.87-2.93,6.3-3,2.59,0,4.92,1.59,5.88,4,.8,1.67,21.85,46.6,21.85,46.6,1.34,4.22-.41,7.9-1.62,9.92l-.3,.41c-2.1,2.66-5.27,4.24-8.65,4.32-2.6,.03-5.04-1.23-6.52-3.37-4.23-5.79-12-7.4-17.46-2.74-2.88,2.45-4.49,6.07-4.38,9.85,0,7.34,5,15,17.46,15.07,7.85,0,14.06-5,18.52-11.8,2-2.56,3.64-5.37,4.89-8.37l4.86-11.47,21.62-51c2.45-5.89,6.7-13.8,13.08-13.86,.49-.02,.87-.41,.88-.9-.05-.44-.41-.78-.85-.82Zm-145.31,16.41h0c.02-.24,.07-.48,.13-.72l.12-.69c.05-.25,.1-.49,.16-.74s.08-.43,.13-.64,.12-.47,.18-.71,.09-.41,.15-.61,.13-.46,.2-.69,.11-.38,.17-.56,.14-.44,.22-.66,.12-.36,.19-.53,.15-.39,.23-.58,.14-.37,.22-.54l.24-.51c.08-.17,.16-.36,.25-.53s.16-.29,.25-.43l.29-.52c.09-.14,.18-.27,.28-.4s.2-.31,.31-.46,.21-.26,.32-.39l.3-.37c.12-.13,.25-.24,.37-.36,.1-.11,.2-.21,.31-.3l.43-.33c.09-.08,.2-.15,.3-.22,.16-.11,.33-.2,.5-.29l.27-.15c.16-.07,.32-.14,.49-.19,.11,0,.22-.1,.33-.13l.48-.11c.13-.04,.27-.07,.4-.09,.3-.04,.61-.06,.92-.06,.3,0,.59,.03,.88,.08l.24,.07c.19,.03,.39,.08,.57,.15,.09,0,.17,.09,.25,.12s.34,.16,.51,.25,.16,.11,.24,.16,.31,.21,.46,.33,.17,.16,.26,.24,.27,.24,.39,.37,.18,.22,.27,.33c.12,.13,.23,.26,.33,.4,.09,.12,.18,.26,.26,.39s.2,.29,.29,.44l.23,.43c.09,.16,.19,.32,.27,.5l.23,.5c.08,.17,.16,.34,.23,.51s.14,.38,.2,.56,.14,.36,.2,.54,.13,.4,.19,.6l.18,.57,.15,.59c.03,.22,.09,.43,.17,.64l.12,.61c.05,.22,.11,.45,.15,.68s.08,.43,.11,.64,.09,.46,.13,.69,.06,.47,.1,.7l.09,.67,.09,.76c-.01,.21,.01,.43,.07,.63h0c.24,2.47-1.08,4.83-3.31,5.91l-.15,.09c-.26,.11-.53,.19-.8,.26-.13,0-.25,.1-.39,.13-.42,.09-.85,.14-1.28,.14h-5c-.46,0-.93-.06-1.38-.16h-.15c-3.09-.82-5.05-3.85-4.54-7.01Z"/><path class="cls-1" d="M190.75,30.6c-6.51-.2-12.98,1.12-18.88,3.87-2.06,.98-4.02,2.16-5.84,3.53-7.39,5.54-12,14.02-12.62,23.23-1.77,19,13.41,36,35.71,36.11,18.32,.14,34.33-11.08,36-30.64s-14.27-35.7-34.37-36.1Zm-1.52,61c-7.25,0-13.12-10.86-13.12-27s5.92-27,13.12-27,13.12,10.86,13.12,27-5.87,26.91-13.12,26.91v.09Z"/><path class="cls-1" d="M163.42,33.65c.22-.04,.45-.06,.68-.06,.55,0,1-.45,1-1s-.45-1-1-1h-25.55c-.57,.07-1,.55-1,1.12h0c0,.51,.38,.94,.88,1,5.84,.65,7.76,7.94,5,16.21l-5.71,16.67c-1,2.92-6.5,3-7.57,.11l-6.8-17.14c-3-8.19-1.26-15.25,5.07-15.81,.52-.08,.9-.54,.89-1.07,0-.57-.47-1.05-1.89-1.12h-42.15c-.58,.07-1.01,.57-1,1.16v.09c-.01,.48,.32,.9,.79,1,3.6,1,9.1,7.72,12,15.67l18.19,45.92c.21,.56,.72,.95,1.32,1h15.12c.61-.03,1.14-.42,1.34-1l15.3-45.4c1.27-4,4.25-14.87,15.09-16.35Z"/><path class="cls-1" d="M101.29,76.13c-.51,0-.96,.33-1.12,.81-1.4,3.89-4.45,6.95-8.33,8.38-7.55,2.68-17.12,2.33-17.12,2.33,0,0-10.23,0-15-2.33-2.69-1.32-4.39-2.9-4.43-5.65v-26.67c-.05-.95,.69-1.76,1.63-1.8,.12,0,.24,0,.37,.02h1.16c4.31,.31,11.7,2.23,14.84,5.4,1.54,1.84,2.68,3.98,3.34,6.28,.11,.47,.52,.8,1,.83h.1c.6,0,1.08-.48,1.08-1.08h0v-27.4c0-.55-.45-1-1-1h-.18c-.48,.03-.88,.36-1,.83-.54,2.19-1.6,4.23-3.1,5.92l-.19,.19c-3.64,3.71-13.4,5.61-16.89,5.36-.62-.1-1.16-.47-1.16-2.44V20.94c.01-.5,.07-1.01,.16-1.5,.58-2.31,3.13-4.44,4.74-5.44,3.85-1.83,8.06-2.75,12.32-2.7,4.72,.03,9.4,.88,13.83,2.5,3.14,1.66,5.82,4.08,7.78,7.05,.21,.39,.57,.66,1,.76,.55,0,1-.45,1-1V5.61c-.16-1.61-1.09-2.23-2.94-2.21H22.32c-4.9,0-16.48,.24-20.75,10.41C.69,15.79,.17,17.9,.03,20.06c-.37,4.81,2.41,9.31,6.87,11.14,1.69,.79,3.58,1.09,5.43,.85,.23-.02,.46-.06,.68-.12,.12,0,.23-.01,.34-.06,.72-.17,1.42-.41,2.08-.74,5.09-2.46,7.17-6.59,3.87-10.35-1.35-1.7-1.63-4.02-.74-6,.49-1.14,2.26-4.49,6.06-4.49,4.42,0,5.65,2.26,5.65,2.26,.37,.39,1.37,1.85,1.37,6.9V84.92c-.19,5.25-1.53,9.76-6.64,9.78-.11-.02-.21-.02-.32,0h-.08c-.07,.03-.14,.06-.2,.11l-.08,.06c-.05,.05-.09,.11-.13,.17-.09,.13-.15,.28-.16,.44h0c0,.5,.25,.89,1,.89H99.17c2.26,0,3.18-.78,3.16-3h0v-16.18c.03-.55-.39-1.03-.94-1.06,0,0,0,0,0,0h-.1Z"/><path class="cls-1" d="M557.03,94.78h-.06c-5.1,0-6.43-4.17-6.4-12.12V46.66c0-10-5.68-16-16.24-16-6.71,0-14,4.84-19.3,9.29-.97,.82-2.42,.69-3.24-.28-.35-.41-.54-.94-.54-1.48v-3.8c0-1.27-1.03-2.3-2.3-2.3-.14-.01-.28-.01-.42,0l-25.62,4.67c-.41,.09-.69,.47-.66,.89,.04,.48,.43,.87,.91,.91,5.15-.88,6.12,3,6.09,11v33c0,8-1.5,12.06-6.6,12.08h-1c-5.09,0-6.32-4.17-6.29-12.13V32.7c-.04-.58-.52-1.02-1.1-1h-.15l-19,3.56-8.24,1.4c-.5,0-.91,.4-.92,.9h0c0,.51,.36,1.07,1.3,.89,5.13-1,6.11,3,6.08,11v33c0,8-1.5,12.06-6.6,12.08h-.06c-.5,0-.9,.39-.91,.89h0c0,.51,.4,1.19,.9,1.19h71.56c.51,0,.92-.41,.92-.92,0-.51-.41-.92-.92-.92h-.6c-5.15,0-6.44-4.14-6.41-12.12V48.65c0-.75,.38-1.44,1-1.86,3-2.16,7.82-4.53,11.17-4.52s5.35,1.95,5.33,5.94v34.39c0,8-1.51,12-6.65,12.08h0c-.5,.06-.85,.5-.8,1,.04,.42,.38,.76,.8,.8h35c.46,.04,.86-.29,.91-.75v-.06c-.02-.5-.44-.9-.94-.88,0,0,0,0,0,0h0Z"/><path class="cls-1" d="M451.95,20.84c-.19,5.32,3.97,9.79,9.29,9.98,5.32,.19,9.79-3.97,9.98-9.29v-.62c.12-5.2-4-9.5-9.2-9.62,0,0,0,0,0,0h-.36c-5.31-.06-9.65,4.2-9.71,9.51h0v.04Z"/><path class="cls-1" d="M460.95,5.51c.43-.06,4.68,0,4.75,0,.55,0,1-.45,1-1,0-.57-.43-1.04-1-1.09h-29.29c-.6,.03-1.07,.53-1.06,1.13h0c0,.52,.39,.95,.9,1,6,.67,7.69,8.12,4.83,16.58l-12.24,37.18c-.58,1.74-2.47,2.69-4.21,2.11-.96-.32-1.72-1.05-2.07-2l-13.92-37.61c-3.05-8.39-1.28-15.72,5.19-16.3,.51-.07,.9-.49,.92-1-.01-.58-.48-1.05-1.06-1.06h-42.31c-.6,.06-1.06,.57-1.06,1.18v.09c.02,.48,.36,.89,.82,1,3.67,1,9.3,7.89,12.26,16l4.29,12c.11,.32,.11,.68,0,1l-8.83,25.61c-.6,1.74-2.5,2.66-4.24,2.05-.92-.32-1.66-1.03-2.01-1.94l-15-38.92c-3.25-8.14-3.08-15.11,1.25-15.89,.5-.07,.86-.5,.86-1h0c0-.6-.46-1.09-1.05-1.14h-38.38c-.55-.03-1.03,.39-1.06,.94,0,0,0,0,0,0v.15c.02,.48,.36,.89,.82,1,2,.53,4.69,3.56,4.69,3.56,3.23,3.6,5.74,7.78,7.41,12.32l13.7,36.33,1.38,3.59c.61,1.86,.51,2.46,.15,3.22-4.77,10.31-14.35,18.75-22.73,19.4-1,0-7.37,1.08-12.93-2.78-6.19-4.32-8.67-13-9.38-21.14-.06-.79,.53-1.49,1.32-1.55,0,0,0,0,0,0h34.71c1.42,0,1.48-.63,1.42-1.41-.74-9.84-9.24-26.4-27.43-26.46-15.12,.09-30.44,13.3-30.61,33.48,0,2.24,.23,4.48,.68,6.68h0c.09,.44,.19,.87,.3,1.31l.15,.58,.16,.55c3.6,12.2,13.78,21.32,26.3,23.57,2.06,.41,4.15,.6,6.25,.57,1.65-.04,3.3-.18,4.93-.4h.92c.44,1.13,.69,2.32,.76,3.53,0,.38-.02,.75-.06,1.13-.35,3.63-2.02,7.01-4.69,9.49-4.29,4-11.1,5.18-18.87-1.07-4.1-3.3-8.37-9.55-13.63-18-7.8-12.54-17.48-42.65-17.56-42.88s4.11-4.43,4.11-4.43c2.31-2.3,14.55-11.15,18.42-11.12h1.78c.52,0,.94-.41,.95-.93h0c0-.53-.42-.97-.95-1h-30.83c-.47-.04-.88,.31-.92,.77,0,0,0,0,0,0h0c-.01,.49,.38,.9,.87,.91h0s.06,0,.06,0c3.08,.15,5.35,3.6,5.57,7.77,.12,2.26-1.32,4.75-3.67,7.18l-9.82,10.27c-.5,.5-1.31,.5-1.81,0-.24-.24-.38-.56-.39-.9V1.26c0-.79-.48-1.38-1.26-1.24,0,0-25.1,4.43-27.11,5-.44,.13-.74,.54-.72,1,.16,1.24,1.51,.72,2.09,.66,4.21-.45,4.87,3.74,4.84,11.18V84.78c-.19,5.28-1.53,9.82-6.66,9.83-.52-.03-.97,.36-1,.88,0,0,0,0,0,0h0c-.07,.49,.27,.93,.76,1,.08,0,.16,0,.24,0h35.08c.78,0,1-.39,1-.9,0-.51-.41-.92-.92-.92,0,0-.01,0-.02,0h-.06c-5.9,0-6.42-6-6.4-12.24v-15.72c0-.33,.13-.65,.37-.89l1.12-1.11c.14,.36,6.5,15.16,9.74,20.8,9,15.65,18.77,24.41,28.13,29,6.49,3.19,13.68,4.66,20.9,4.26,5.68-.34,11.26-1.69,16.46-4,1.57-.68,3.09-1.46,4.55-2.34,5.08-3.12,7.25-7,7.56-10.65,.19-2.55-.44-5.09-1.8-7.26-.39-.64-.84-1.24-1.35-1.79,7.43-3.93,12.87-10.8,15-18.93,.22-.1,.45,0,.7,.51l.23,.6,7.79,20.36c.21,.56,.74,1.23,1.34,1.23h9.17c.62,0,1.17-.66,1.37-1.25l17.12-50.43c.26-.75,1.08-1.15,1.83-.89,.42,.14,.74,.47,.89,.89l18.41,50.63c.2,.6,.73,1.02,1.35,1.08h9.15c.64-.04,1.18-.48,1.37-1.09l23.88-73.22c1.23-4.04,3.96-15.22,15.04-16.71Zm-158.62,42.49h0c.02-.24,.07-.48,.13-.72l.12-.69,.15-.74c.05-.21,.09-.43,.14-.64s.11-.47,.17-.71l.15-.61,.21-.69c.05-.19,.1-.38,.16-.56l.23-.66,.18-.53c.08-.2,.16-.39,.23-.58s.15-.37,.22-.54,.17-.34,.25-.51,.16-.36,.25-.53l.24-.43,.3-.52,.27-.4,.31-.46,.32-.39c.11-.12,.2-.25,.31-.37s.25-.24,.37-.36c.1-.11,.2-.21,.31-.3l.43-.33c.09-.08,.19-.15,.29-.22l.51-.29c.09-.06,.18-.11,.27-.15,.16-.08,.32-.14,.49-.19,.11,0,.22-.1,.33-.13l.48-.11c.13-.04,.27-.07,.4-.09,.31-.04,.61-.06,.92-.06,.29,0,.58,.03,.87,.08l.25,.07c.19,.03,.39,.08,.57,.15,.08,0,.16,.09,.25,.12,.18,.07,.35,.15,.51,.25,.17,.1,.16,.11,.24,.16s.31,.21,.46,.33,.17,.16,.26,.24,.27,.24,.39,.37,.18,.22,.27,.33c.12,.13,.23,.26,.33,.4,.09,.12,.17,.26,.26,.39s.2,.29,.29,.44l.23,.43c.09,.16,.18,.32,.27,.5s.15,.33,.23,.5l.22,.51c.08,.18,.14,.38,.21,.56s.14,.36,.2,.54,.13,.4,.19,.6,.12,.37,.17,.57,.11,.39,.16,.59,.11,.42,.16,.64,.09,.4,.13,.61l.15,.68c.02,.22,.06,.43,.11,.64,0,.21,.09,.46,.12,.69s.07,.47,.1,.7,.07,.45,.1,.67l.09,.76c-.01,.21,.01,.43,.07,.63h0c.25,2.47-1.07,4.84-3.3,5.93l-.15,.09c-.26,.11-.52,.19-.79,.26-.13,0-.25,.1-.39,.13-.42,.09-.85,.14-1.28,.14h-5c-.47,0-.94-.07-1.39-.19h-.15c-3.09-.81-5.06-3.84-4.55-7Z"/></svg>