<?xml version="1.0" encoding="UTF-8"?><svg id="Layer_1" xmlns="http://www.w3.org/2000/svg" viewBox="0 0 222 38"><defs><style>.cls-1{fill:#fff;}</style></defs><path class="cls-1" d="M175.68,26.45s-2.39,.03-2.39-2.16V15.41c.6-.56,1.32-.88,2.16-.88,2.31,0,3.95,2.43,3.95,6.34,0,3.3-1.24,5.57-3.72,5.57m2.07-13.67c-1.89,0-3.07,.59-4.45,1.5l-.04-1.34V5.84c-.39,.18-.79,.35-1.22,.54-1.5,.62-2.88,.71-3.98,.61,.39,.49,.93,1.41,.93,2.72l.06,9.21v6.28c1.72,1.81,4.42,2.34,6.48,2.37,5.11,0,8.01-3.33,8.01-7.82s-2.59-6.96-5.79-6.96"/><path class="cls-1" d="M215.03,14.07c1.54-.12,3.14,.39,3.42,4.1l-5.6,.42c-.23-3.09,.55-4.39,2.19-4.51m2.93,11.03c-2.83,.21-4.68-1.72-5.06-5.3-.01-.14-.02-.25-.01-.38l9.06-.68c-.27-3.56-2.77-6.27-6.72-5.97-4.23,.32-6.95,3.65-6.61,8.17,.31,4.16,3.19,6.9,7.32,6.59,3.04-.23,4.9-1.69,6.06-3.9,0,0-1.79,1.29-4.02,1.46"/><path class="cls-1" d="M101.7,14.07c1.54-.12,3.14,.39,3.42,4.1l-5.6,.42c-.23-3.09,.55-4.39,2.19-4.51m-2.12,5.73c-.01-.14-.02-.25-.01-.38l9.06-.68c-.27-3.56-2.77-6.27-6.73-5.97-4.23,.32-6.95,3.65-6.61,8.17,.31,4.16,3.19,6.9,7.32,6.59,3.04-.23,4.9-1.69,6.06-3.9,0,0-1.79,1.29-4.02,1.46-2.83,.21-4.68-1.72-5.06-5.3"/><path class="cls-1" d="M80.12,13.02c1.24,0,2.14-.81,2.14-1.99s-.9-1.99-2.14-1.99-2.11,.84-2.11,1.99,.89,1.99,2.11,1.99"/><path class="cls-1" d="M90.21,23.61V14.58h4.23v-.85h-4.23s0-3.94,0-3.94c-.43,.42-.88,.87-2.69,2.23-2.11,1.58-3.05,1.65-3.05,1.65,.79,.15,1.49,.67,1.49,1.49v8.45c0,2.63,1.82,3.95,4.15,3.95,2.14,0,3.83-1.04,4.74-2.2,0,0-1.11,.49-2.15,.49-1.23,0-2.48-.77-2.48-2.24"/><path class="cls-1" d="M56.8,12.47c-1.35,.45-3.16,.45-4.91,.23,.83,1.65,.66,5.19,.66,6.99v4.75c-.63,.7-1.89,1.14-2.92,1.14-1.75,0-2.2-1.52-2.2-3.19l-.13-9.94c-1.87,.67-2.96,.49-4.73,.3,0,0,.59,.75,.59,4.67v5.93c0,2.84,2,4.19,4.13,4.19s4.34-1.31,5.36-2.38l.52,2.36c.88-.44,2.65-.88,4.94-.82-.39-.41-1.3-2.03-1.3-3.98V12.47Z"/><path class="cls-1" d="M206.28,12.58c-1.9,.65-3.07,.84-4.78,.58,.17,.18,.66,1.2,.66,3.27v8.03c-.63,.7-1.89,1.14-2.92,1.14-1.75,0-2.2-1.52-2.2-3.19l-.13-9.95c-1.87,.67-2.96,.95-4.73,.76,0,0,.59,.72,.59,3.9v6.25c0,2.84,2,4.19,4.13,4.19s4.34-1.31,5.36-2.38l.52,2.36c.88-.44,2.65-.88,4.94-.82-.39-.41-1.3-2.03-1.3-3.98l-.13-10.16Z"/><path class="cls-1" d="M74.24,16.87c0-2.42-1.85-4.09-4.35-4.09-2.03,0-3.78,1.12-5.04,2.4v-2.71c-1.89,.72-3.25,.73-5.09,.5,.2,.85,.66,1.3,.81,4.47v7.11c0,.11-.01,.22-.03,.33,0,.7-.76,2.39-.76,2.39h6.06s-.98-1.69-.98-2.61v-8.63c.7-.69,1.64-1.26,2.63-1.26,1.56,0,2.38,.98,2.38,2.45v7.59c0,.34-.52,2.46-.52,2.46h5.82s-.92-2.1-.92-2.81v-7.57Z"/><path class="cls-1" d="M120.53,23.97c-.41,.62-1.48,1.64-2.32,1.64-2.18,0-3.42-2.04-3.42-5.88s1.34-5.66,3.56-5.66c1.11,0,1.77,.62,2.18,1.7v8.21Zm4.27-18.13c-.39,.18-.79,.35-1.22,.54-1.5,.62-2.88,.71-3.98,.61,.39,.49,.93,1.93,.93,3.23v4.07c-1.15-1.15-2.2-1.5-3.2-1.5-4.66,0-7.04,3.33-7.04,7.97,0,3.98,2.14,6.8,5.56,6.8,2.25,0,3.72-1.14,4.77-2.2l.34,2.45c2.24-1.33,4.95-.88,4.95-.88-.45-.45-1.11-2.26-1.11-4.07V5.84Z"/><path class="cls-1" d="M140.47,26.45s-2.39,.03-2.39-2.16V15.41c.6-.56,1.32-.88,2.16-.88,2.31,0,3.95,2.43,3.95,6.34,0,3.3-1.24,5.57-3.72,5.57m2.06-13.67c-1.89,0-3.07,.59-4.45,1.5l-.04-1.34V5.84c-.39,.18-.79,.35-1.22,.54-1.5,.62-2.88,.71-3.98,.61,.39,.49,.93,1.93,.93,3.23l.06,8.7v6.28c1.72,1.81,4.42,2.34,6.48,2.37,5.11,0,8.01-3.33,8.01-7.82s-2.59-6.96-5.79-6.96"/><path class="cls-1" d="M189.92,5.63c-.65,.29-1.28,.52-1.91,.69-1.5,.38-2.69,.42-3.61,.31,.25,.25,1.25,1.4,1.25,3.81v13.88c0,.85-1.29,2.91-1.29,2.91h6.86s-1.3-1.64-1.3-2.89V5.63Z"/><path class="cls-1" d="M158.87,14.3c.38,.51,.47,1.18,.24,1.77l-2.79,6.94-2.6-6.81c-.26-.67-.15-1.43,.28-2l.78-1.05h-6.88l1.67,1.95c.13,.13,.23,.29,.29,.46l4.19,11.81-.67,1.52c-1.71,3.01-3.15,2.56-5.33,1.66,.45,.9,.76,1.6,1.26,2.73,.86,.07,3.48,.39,5.46-4.27l5.3-12.63,1.7-3.23h-3.77l.87,1.16Z"/><path class="cls-1" d="M82.55,14.37c-1.35-.43-2.26,.78-4.6,.43,.53,2.08,.37,3.02,.37,4.33v5.04c0,1.67-1.3,3.05-1.3,3.05h6.86s-1.3-1.38-1.3-3.23l-.05-9.62Z"/><path class="cls-1" d="M28.16,20.32c-3.79,.2-7.35,1.93-9.13,2.94-.29,.16-.58,.34-.9,.52-2.37,1.4-5.59,3.3-11.12,3.89,.9,.49,3.3,1.42,7.4,.37,2.07-.53,4.21-1.69,6.47-2.91,3.33-1.8,7.09-3.83,11.43-4.22-.67-.3-2.02-.71-4.15-.59"/><path class="cls-1" d="M24.79,26.91c-1.76,.3-3.62,1.18-5.58,2.11-2.4,1.14-4.88,2.32-7.59,2.66,1.33,.47,4.47,1.25,8.08-.25,1.56-.65,2.87-1.29,4.03-1.85,2.35-1.14,4.24-2.06,6.67-2.33-.93-.34-2.85-.82-5.61-.35"/><path class="cls-1" d="M22.91,15.81c-1.92,.45-3.88,1.44-5.95,2.48-3.27,1.64-6.96,3.5-11.72,4,4.88,2.35,11.13-.52,15.79-3.07,4.66-2.55,8.34-3.31,9.98-3.5-1.4-.5-3.89-.91-8.09,.09"/><path class="cls-1" d="M18.68,35.6C9.41,35.6,1.87,28.06,1.87,18.79S9.41,1.99,18.68,1.99s16.81,7.54,16.81,16.8-7.54,16.81-16.81,16.81M18.68,.11C8.38,.11,0,8.49,0,18.79s8.38,18.68,18.68,18.68,18.68-8.38,18.68-18.68S28.97,.11,18.68,.11"/></svg>