<?xml version="1.0" encoding="UTF-8"?><svg id="White" xmlns="http://www.w3.org/2000/svg" viewBox="0 0 216.43 211.51"><defs><style>.cls-1{fill:#fff;}</style></defs><path class="cls-1" d="M108.21,0C69.72,0,38.4,31.32,38.4,69.81s31.32,69.81,69.81,69.81,69.81-31.32,69.81-69.81S146.71,0,108.21,0Zm-.79,103.39c-1.29,.04-2.53,.09-3.81,.13,1.32-.79,2.6-1.54,3.93-2.32-.27,.72-.63,1.41-.12,2.19Zm-1.63-9.79c-.51-.26-1.05-.46-1.54-.74-.38-.22-.71-.52-1.07-.8-.53-.41-.94-.89-1.06-1.59-.2-1.13-.46-2.25-.46-3.43,0-.97-.09-1.94-.15-2.93,.05,.06,.13,.11,.16,.19,.3,.63,.58,1.26,.89,1.89,.43,.86,.39,1.88,.96,2.71,.43,.61,.7,1.34,1.15,1.94,.47,.63,1.11,1.14,1.61,1.76,.47,.59,.86,1.25,1.34,1.97-.7-.36-1.26-.67-1.84-.96Zm3.94-24.37c.02-.17,.08-.34,.14-.54,.14,.08,.22,.1,.28,.15,.49,.47,.98,.92,1.53,1.34,1,.77,2.02,1.49,3.13,2.11,.22,.13,.39,.34,.61,.47,.59,.34,1.2,.66,1.8,.99,.9,.5,1.78,1.06,2.79,1.32,.68,.18,1.35,.36,2.03,.51,.86,.19,1.71,.39,2.57,.54,.37,.07,.52,.26,.56,.59,.04,.3,.03,.6,.06,.9,.02,.22,.09,.43,.11,.64,.03,.59,.03,1.19,.08,1.78,.06,.73,.19,1.46,.23,2.19,.04,.66,.01,1.33,0,1.99,0,.37,.03,.78-.09,1.12-.17,.45-.21,.89-.25,1.36-.02,.33-.12,.66-.23,.96-.25,.69-.55,1.35-.78,2.04-.23,.72-.56,1.37-1.11,1.9-.11,.11-.22,.23-.29,.36-.16,.31-.26,.65-.44,.93-.74,1.14-1.4,2.31-1.91,3.58-.13,.32-.24,.65-.42,.94-.24,.38-.54,.72-.82,1.07-.07,.09-.18,.15-.28,.21-.15,.09-.31,.18-.51,.29-.27-.4-.61-.8-.83-1.26-.23-.49-.36-1.03-.52-1.55-.3-1-.55-2.03-.89-3.02-.64-1.96-2.07-3.43-3.27-5.03-.2-.26-.51-.43-.72-.68-.21-.27-.39-.57-.54-.88-.25-.55-.56-1.09-.66-1.67-.08-.44-.13-.87-.29-1.29-.41-1.05-.77-2.11-1.06-3.2-.43-1.64-.79-3.29-1.16-4.95-.21-.92-.08-1.8,.29-2.69,.34-.8,.58-1.65,.81-2.49,.09-.32,0-.69,.02-1.04Zm35.13,49.17h-10.33c-.01-.12-.03-.25-.04-.37-.1-.92-.21-1.83-.32-2.78,.05,0,.01-.02,0,0-.03,.01-.05,.05-.12,.14-.09-.8-.18-1.52-.26-2.25-.08-.65-.16-1.3-.24-1.95-.02-.14-.1-.28-.12-.42-.03-.24-.06-.48-.07-.72,0-.22,.04-.45,.02-.66-.17-1.54-.36-3.08-.55-4.62-.04-.35-.06-.7-.17-1.03-.04-.13-.29-.26-.45-.27-.42-.04-.86,0-1.29-.01-.13,0-.25-.01-.5-.03,.22-.19,.36-.31,.44-.38,.1-.43,.2-.8,.29-1.18,.12-.49,.16-1.02,.39-1.45,.26-.5,.67-.93,1.04-1.37,.39-.46,.83-.89,1.2-1.38,.58-.76,1.18-1.51,1.51-2.42,.17-.46,.3-.93,.49-1.39,.41-1.03,.83-2.06,1.26-3.08,.44-1.07,1.01-2.07,1.55-3.08,.53-.98,1.23-1.82,1.9-2.67,.48-.61,1.04-1.25,1.83-1.56,.13-.05,.19-.28,.32-.35,.9-.47,1.79-.96,2.72-1.37,.8-.35,1.65-.56,2.45-.92,.69-.31,1.45-.63,1.97-1.15,.37-.37,.87-.48,1.18-.87,.31-.38,.69-.71,.96-1.12,.46-.7,.85-1.44,1.26-2.16,.2-.36,.39-.73,.56-1.11,.28-.6,.58-1.2,.8-1.82,.51-1.37,.97-2.75,1.44-4.13,.35-1.02,.67-2.05,1.01-3.08,0-.03,.05-.06,.11-.14,.07,.27,.15,.49,.17,.72,.1,1.18,.45,2.34,.32,3.54-.08,.7-.08,1.41-.16,2.11-.18,1.45-.38,2.9-.6,4.36-.14,.91-.33,1.81-.49,2.71-.02,.1,0,.21,.01,.32,0,.11,.06,.27,0,.35-.54,.81-.44,1.8-.73,2.68-.27,.86-.5,1.73-.84,2.56-.31,.76-.72,1.47-1.12,2.19-.46,.83-.9,1.67-1.45,2.44-.53,.75-1.12,1.48-1.79,2.1-.42,.39-1,.65-1.55,.86-.8,.31-1.65,.5-2.46,.78-.66,.22-1.1,.73-1.45,1.31-.46,.75-.9,1.51-1.36,2.26-.05,.09-.16,.2-.25,.21-.46,.04-.91,.08-1.37,.08-.11,0-.22-.15-.36-.27-.13,.15-.37,.17-.08,.54,.48,.61,1.04,.96,1.78,1.03,.75,.07,1.45-.08,2.11-.49,.46-.28,.88-.6,1.5-.6,.63,0,1.17-.43,1.55-.95,.46-.61,.85-1.26,1.29-1.86,.25-.33,.52-.64,.83-.91,.66-.56,1.16-1.23,1.57-1.98,.1-.18,.28-.32,.4-.49,.3-.42,.6-.84,.89-1.26,.2-.29,.35-.59,.57-.86,.54-.64,.98-1.32,1.32-2.09,.22-.5,.6-.93,.84-1.43,.51-1.08,.94-2.2,1.15-3.39,0-.03,0-.06,.01-.08,.6-.7,.45-1.65,.77-2.45,.24-.6,.33-1.26,.48-1.89,.21-.88,.45-1.77,.64-2.66,.15-.71,.26-1.44,.38-2.15,.03-.17,.09-.34,.11-.51,.03-.19,.03-.38,.03-.57,0-.12-.02-.24-.01-.36,.13-1.15,.3-2.31,.37-3.46,.07-1.12,.04-2.24,.06-3.35,.02-.6,.11-1.21,.1-1.81-.02-.89-.09-1.79-.15-2.68-.08-1.1-.15-2.21-.26-3.31-.11-1.02-.21-2.05-.42-3.05-.3-1.36-.69-2.69-1.06-4.03-.21-.75-.44-1.49-.7-2.21-.09-.24-.27-.45-.4-.67-.59-1-1.15-2.02-1.78-3.01-.47-.75-1.07-1.42-1.53-2.17-.54-.88-1-1.81-1.47-2.73-.75-1.45-1.39-2.97-2.43-4.24-.48-.6-1-1.16-1.52-1.72-.98-1.04-1.93-2.13-2.98-3.09-1.03-.94-2.16-1.78-3.31-2.57-.33-.23-.62-.49-.93-.73-.69-.56-1.41-1.1-2.11-1.64-.82-.63-1.59-1.31-2.46-1.85-.81-.5-1.72-.82-2.58-1.22-.43-.2-.84-.51-1.29-.62-.89-.19-1.69-.67-2.63-.71-.89-.04-1.76-.27-2.65-.4-.3-.05-.61-.05-.91-.07-.86-.06-1.71-.14-2.57-.15-1.31,0-2.63,0-3.94,.09-1.26,.1-2.5,.3-3.72,.69-.73,.23-1.51,.3-2.28,.42-.98,.16-1.91,.45-2.82,.85-.4,.18-.85,.24-1.27,.36-.44,.13-.87,.26-1.3,.4-.98,.32-1.95,.63-2.93,.96-.87,.29-1.73,.54-2.48,1.14-.55,.44-1.27,.73-1.95,.93-.58,.17-1.23,.14-1.86,.17-.52,.03-1.05-.02-1.56,.06-.33,.05-.63,.27-.94,.42-.95,.46-1.88,.98-2.85,1.38-.84,.34-1.71,.65-2.59,.78-1.2,.19-2.43,.2-3.62-.22-.75-.27-1.52-.5-2.23-.86-1.03-.52-2.1-.53-3.18-.4-1.11,.13-2.2,.41-3.3,.66-.97,.22-1.78,.77-2.56,1.38-1.16,.9-2.09,2-2.94,3.18-.62,.85-1.12,1.78-1.48,2.77-.06,.14-.15,.27-.25,.4-.29,.41-.34,.85-.27,1.35,.04,.31-.07,.63-.11,.95-.05,.44-.1,.89-.15,1.33-.07,.58-.06,1.18-.23,1.72-.29,.9-.82,1.7-1.32,2.51-.18,.29-.25,.64-.39,.95-.11,.26-.27,.5-.38,.76-.23,.58-.45,1.17-.68,1.75-.28,.68-.53,1.36-.57,2.11-.04,.72-.22,1.43-.19,2.14,.02,.76,.15,1.54,.35,2.27,.16,.62,.48,1.2,.72,1.8,.19,.47,.42,.94,.55,1.43,.16,.64,.24,1.31,.35,1.96,.06,.38,.17,.76,.16,1.13,0,.27-.15,.53-.24,.79-.06,.21,.12,.44-.11,.65-.09,.08-.03,.34-.03,.51-.02,.43-.03,.85-.07,1.28-.05,.64-.15,1.27-.19,1.91-.04,.64-.09,1.28-.05,1.92,.05,.84,.19,1.67,.3,2.5,.06,.42,.19,.83,.21,1.25,0,.17-.16,.42-.31,.53-.42,.31-.92,.53-1.3,.88-.8,.75-1.77,1.21-2.71,1.71-.01,0-.03,0-.04,.02-.78,.76-1.91,.91-2.77,1.52-1.01,.71-2.19,1.08-3.28,1.63-.64,.32-1.34,.5-2.02,.75-.4,.15-.78,.31-1.21,.48,.41,.39,.77,.6,1.34,.51,1.8-.26,3.56-.69,5.23-1.41,1.34-.56,2.64-1.2,3.95-1.84,.73-.36,1.44-.78,2.13-1.21,.56-.34,1.09-.73,1.71-1.15,.11,.35,.2,.63,.27,.91,.08,.28,.19,.57,.17,.85-.02,.27-.1,.64-.29,.78-1.02,.77-2.06,1.51-3.13,2.2-.83,.54-1.72,.97-2.58,1.46-.81,.45-1.67,.77-2.57,1.01-.31,.08-.58,.27-.88,.38-.4,.14-.81,.26-1.22,.37-.29,.07-.62,.12-.58,.52,.03,.39,.41,.65,.83,.57,1.02-.18,2.05-.36,3.06-.61,.62-.15,1.21-.45,1.81-.66,.36-.13,.74-.2,1.1-.35,.41-.17,.79-.41,1.19-.62,1.34-.7,2.69-1.4,4.01-2.09,.33,.68,.65,1.43,.76,2.25,.09,.75,.23,1.49,.3,2.23,.08,.78,.14,1.57,.15,2.36,0,.85-.05,1.7-.08,2.55,0,.41,.02,.81,0,1.21-.03,.42-.1,.85-.14,1.27-.06,.54-.1,1.09-.17,1.63-.02,.12-.12,.29-.22,.31-.64,.18-1.28,.26-1.92,.16-.11-.6-.35-1.17-.78-1.65-.46-.52-.99-.85-1.73-.7-.08,.02-.15,0-.22,0-.11,.06-.23,.12-.38,.14-.17,.03-.24,.08-.26,.12-.01,.03-.02,.03-.02,.03-.07,.28-.22,.48-.43,.6-.12,.22-.33,.35-.82,.47-.1-.38-.37-.35-.67-.28-1.88,.51-3.73,1.11-5.47,2-.26,.13-.31,.26-.23,.54,.18,.68,.32,1.38,.5,2.06,.19,.71,.43,1.4,.62,2.1,.28,.98,.53,1.97,.79,2.95,.18,.67,.37,1.31,.51,1.98,.1,.43,.38,.66,.77,.69,.59,.04,1.2,.05,1.79-.02,1.58-.22,3.05-.75,4.37-1.67,.13-.09,.25-.19,.37-.29,.67-.59,.69-.89,.34-1.49-.15-.26-.2-.57-.32-.84-.13-.31-.28-.62-.44-.96,.32,.11,.51-.03,.71-.25,.11-.12,.24-.18,.39-.21,.43-.38,.56-.93,.67-1.48-.05-.15-.07-.31-.08-.48,.04-.01,.08-.02,.12-.03,.4-.21,.76-.51,1.16-.73,.22-.13,.48-.19,.72-.24,.07,0,.23,.12,.26,.21,.21,.72,.36,1.45,.6,2.15,.14,.4,.39,.79,.64,1.14,.43,.62,.83,1.28,1.36,1.8,.7,.67,1.45,1.34,2.43,1.58,.56,.13,1.16,.12,1.75,.14,.75,.02,1.42-.24,2.05-.62,.94-.56,1.51-1.36,1.57-2.48,.06-1.01-.05-1.99-.52-2.88-.29-.56-.69-1.09-1.11-1.56-.48-.52-1.01-1.03-1.6-1.43-.48-.33-1.08-.5-1.63-.73-.3-.12-.62-.23-.87-.32,.06-.95,.12-1.86,.18-2.77,.05-.62,.1-1.25,.16-1.87,.07-.76,.15-1.52,.23-2.27,.09-.82,.21-1.63,.28-2.44,.07-.75,.14-1.51,.11-2.26-.04-1.14-.16-2.27-.27-3.41-.07-.7-.16-1.4-.29-2.1-.17-.92-.41-1.84-.59-2.76-.03-.14,.01-.34,.1-.46,.2-.3,.45-.55,.65-.84,.06-.08,.01-.23,.06-.32,.16-.34,.37-.66,.53-1,.34-.76,.66-1.53,.99-2.29,.36,.23-.15,.84,.35,1.1,.04-.14,.06-.25,.1-.38,.85,1.23,1.93,2.18,3.15,2.96,.29,.19,.71,.24,1.07,.24,.39,0,.81-.71,.7-1.15-.22-.96-.49-1.91-.76-2.86-.06-.21-.05-.31,.14-.52,.62-.68,1.41-1,2.26-1.2,.93-.22,1.56-.82,2.11-1.54,.24-.31,.43-.67,.65-1.02,.51,.16,.83,.55,1.1,.97,.32,.51,.62,1.03,.9,1.56,.2,.38,.47,.67,.84,.88,.73,.41,.84,1.1,.77,1.84-.09,.91-.21,1.82-.34,2.73-.11,.74-.26,1.47-.4,2.21-.23,1.24-.27,2.47-.25,3.73,0,1.32,.31,2.55,.69,3.78,.28,.91,.25,1.86,.42,2.78,.15,.81,.29,1.62,.42,2.43,.17,1,.43,2.02,.48,3.03,.04,1.01,.28,1.97,.43,2.95,.09,.6,.14,1.23,.34,1.8,.28,.81,.68,1.59,1.03,2.38,.02,.03,.05,.07,.07,.1,.43,.43,.86,.88,1.32,1.28,.81,.71,1.65,1.39,2.47,2.08,.24,.21,.47,.45,.74,.62,.7,.46,.79,1.21,.96,1.92,.1,.45,.1,.93,.17,1.39,.03,.15,.1,.3,.16,.44,.1,.23,.2,.45,.29,.65,.18,.11,.36,.23,.54,.35l-.05,.15c-.49,0-.97,0-1.46,0-.59,.01-1.19,.03-1.77,.08-.09,0-.23,.18-.25,.29-.14,.94-.24,1.88-.36,2.82-.09,.69-.17,1.37-.26,2.06-.05,.31-.1,.62-.14,.94-.15,1.07-.31,2.15-.45,3.22-.18,1.29-.37,2.59-.51,3.88-.06,.52-.07,1.04-.09,1.56h-25.36c-14.71-11.13-24.24-28.76-24.24-48.58,0-33.57,27.31-60.88,60.89-60.88s60.89,27.31,60.89,60.88c0,19.82-9.53,37.46-24.24,48.58Zm-68-24.97c.68,.46,1.28,.83,1.84,1.27,.19,.15,.21,.5,.38,.69,.33,.35,.35,.78,.38,1.19,.02,.28-.14,.54-.47,.68-.49,.21-1.02,.14-1.3-.21-.43-.51-.76-1.13-1-1.75-.14-.35-.05-.79-.03-1.19,.01-.18,.09-.37,.19-.7Zm-7.42,1.51c-.11,.33-.4,.45-.73,.5-.26,.04-.52,.06-.83,.09-.48-1.18-1-2.44-1.53-3.71,.23-.04,.55,.11,.54-.31-.02-.38,.16-.65,.51-.78,.12-.04,.23-.05,.33-.04-.12,.17-.14,.37-.04,.55,.14,.25,.31,.52,.54,.69,.09,.06,.17,.13,.25,.2,.02,.04,.06,.08,.11,.12,.17,.2,.3,.42,.41,.69,.05,.12,.07,.25,.1,.37-.02,.05-.02,.1-.05,.15-.2,.29-.19,.44,.1,.63,.03,.02,.05,.05,.08,.08,.03,.16,.11,.29,.23,.38,.03,.13,.03,.26-.02,.4Zm-22.85,58.03c.11,12.21,.21,24.42,.32,36.63-3.31,.4-6.61,.86-9.91,1.37l-.19-23.59c-3.29,8.11-6.57,16.53-9.84,25.35-2.54,.5-5.06,1.03-7.58,1.62-3.16-7.68-6.3-15.62-9.4-23.85,.03,8.74,.05,17.48,.08,26.22-3.36,.94-6.71,1.98-10.06,3.13v-46.88H12.62c3.46,8.96,6.96,17.59,10.48,25.9,3.3-9.02,6.61-17.63,9.92-25.9h13.57Zm36.41,33.87c-8.94,.35-17.84,.9-26.7,1.75-.1-11.88-.21-23.75-.31-35.62h26.82c.01,1.91,.02,3.82,.03,5.74-5.57,0-11.12,0-16.64,.03,.01,2.19,.03,4.39,.05,6.59,5.52-.11,11.06-.18,16.62-.23,.02,2.53,.03,5.05,.04,7.58-5.55,.11-11.09,.26-16.61,.46,.02,2.26,.04,4.52,.05,6.79,5.52-.29,11.04-.51,16.59-.67,.01,2.53,.03,5.05,.04,7.58Zm34.83-7.88c0,2.49-.01,4.98-.02,7.47-8.5-.12-17-.08-25.49,.12-.04-11.19-.08-22.38-.12-33.58h10.31c0,8.65,.02,17.3,.03,25.96,5.1-.03,10.19-.02,15.28,.03Zm26.12-25.99h10.91c-5.38,11.73-10.75,23.04-16.11,34.1-2.57-.13-5.15-.23-7.73-.32-5.23-11.48-10.5-22.66-15.82-33.78h10.91c2.97,6.71,5.92,13.48,8.85,20.36,2.99-6.7,5.98-13.47,8.98-20.36Zm16.68,0h10.09c-.11,12.24-.21,24.49-.32,36.74-3.35-.42-6.71-.79-10.08-1.11,.1-11.88,.2-23.76,.31-35.63Zm55.81,.06v46.82c-3.06-1.05-6.12-2.01-9.2-2.89-5.87-10.51-11.71-20.04-17.59-28.83-.05,8.2-.11,16.4-.17,24.6-3.31-.65-6.64-1.23-9.97-1.75,.1-12.68,.21-25.35,.31-38.02h10.84c5.38,7.83,10.74,16.25,16.09,25.48,.03-8.49,.06-16.99,.08-25.48h9.08c.18,.02,.36,.04,.54,.06Zm-99.6,45.87c.1,0,.15,0,.17,.02,0,0,0,.03-.02,.05-.02,.02-.06,.05-.1,.09-.04,.03-.08,.07-.12,.11-.08,.12-.15,.26-.23,.44-.07,.18-.15,.36-.23,.55-.06,.16-.16,.41-.3,.77-.14,.36-.3,.78-.5,1.27-.19,.49-.4,1.02-.62,1.6-.22,.58-.45,1.17-.68,1.77-.23,.6-.46,1.19-.69,1.78-.22,.59-.43,1.12-.62,1.62-.19,.5-.36,.93-.5,1.29-.13,.36-.24,.62-.31,.78-.03,.05-.07,.12-.13,.2-.05,.08-.12,.12-.18,.12-.04,0-.1-.04-.15-.12-.04-.08-.09-.17-.14-.27-.05-.1-.1-.21-.14-.31-.04-.11-.08-.2-.09-.26-.05-.1-.12-.28-.21-.54l-.35-.96c-.13-.38-.29-.81-.45-1.27-.16-.47-.33-.95-.51-1.45-.23,.59-.46,1.16-.68,1.72-.22,.55-.41,1.05-.59,1.49-.17,.44-.31,.8-.42,1.08-.11,.28-.17,.44-.18,.47-.02,.05-.07,.13-.14,.24-.07,.11-.14,.16-.2,.16-.07,0-.13-.04-.18-.11-.05-.07-.11-.15-.15-.25-.04-.1-.09-.2-.12-.31-.04-.1-.07-.19-.1-.27-.11-.24-.22-.56-.38-.98-.15-.42-.33-.89-.53-1.42-.19-.53-.4-1.1-.62-1.7-.22-.61-.44-1.21-.66-1.82-.23-.61-.45-1.2-.66-1.77-.22-.57-.42-1.09-.6-1.57-.19-.47-.36-.88-.51-1.21-.14-.33-.27-.55-.35-.67-.05-.09-.12-.17-.19-.24-.07-.08-.03-.11,.1-.11h2.34c.09,0,.14,.02,.15,.04,0,.02,0,.06-.03,.1-.03,.04-.06,.08-.09,.13-.03,.05-.05,.1-.03,.14,0,.04,.07,.25,.19,.6,.12,.36,.26,.8,.43,1.33,.17,.53,.37,1.11,.57,1.75,.21,.63,.42,1.26,.63,1.88,.2,.62,.4,1.19,.59,1.72,.19,.53,.35,.96,.48,1.26,0,.04,.03,.1,.05,.15,.02,.05,.04,.11,.06,.16,.03,.05,.05,.08,.07,.1,.02,.02,.04,0,.07-.04,.04-.1,.11-.26,.21-.48,.1-.22,.2-.48,.32-.77,.11-.29,.24-.61,.37-.95,.12-.3,.23-.6,.34-.88l.98-2.55s0,0,0,0l.39,1.19c.18,.52,.35,1.03,.54,1.54,.18,.51,.35,.98,.49,1.39,.15,.42,.28,.77,.39,1.05,.11,.28,.19,.45,.23,.52,.58-1.38,1.18-2.84,1.78-4.37,.6-1.53,1.12-3.03,1.59-4.52,.02-.08,.02-.15-.02-.21l-.08-.17s-.02-.07,0-.1c.02-.02,.09-.03,.21-.03h1.07Zm-37.99,6.08c-.37-.5-.9-.84-1.6-1.02,.33-.26,.59-.61,.78-1.06,.19-.45,.28-.89,.28-1.31,0-.6-.1-1.08-.29-1.44-.19-.36-.49-.63-.88-.81-.38-.18-.86-.3-1.44-.35-.58-.05-1.24-.07-1.99-.07-.42,0-.77,0-1.03,0-.27,0-.48,0-.63,0-.15,0-.25,.02-.3,.04-.05,.02-.08,.06-.08,.1,.02,.08,.07,.17,.18,.27,.11,.1,.18,.29,.25,.57,0,.09,.02,.35,.03,.78,0,.42,.02,.95,.03,1.55,.01,.61,.02,1.27,.02,1.98v2.01c0,.37,0,.78-.02,1.24,0,.46-.02,.9-.04,1.31-.02,.41-.03,.76-.05,1.06-.02,.3-.03,.46-.03,.49,0,.12-.03,.21-.07,.28-.03,.07-.06,.12-.1,.16-.03,.04-.06,.08-.08,.1-.01,.03-.01,.06,0,.11,.05,.1,.16,.19,.33,.25,.17,.06,.37,.12,.59,.16,.22,.04,.46,.07,.71,.09,.24,.02,.46,.04,.66,.04,.2,0,.36,0,.48,0h.15c.31,0,.66,0,1.04-.04,.38-.03,.72-.09,1.01-.2,.02-.01,.1-.03,.23-.06,.13-.04,.3-.09,.48-.17,.19-.08,.38-.18,.57-.31,.19-.13,.36-.29,.49-.48,.38-.47,.66-1.02,.84-1.67,.18-.65,.23-1.29,.14-1.91-.08-.62-.31-1.19-.67-1.69Zm-4.86-4.82s.12-.1,.23-.15c.24-.14,.43-.24,.58-.28,.14-.04,.29-.06,.44-.06,.45,0,.82,.19,1.11,.58,.3,.39,.45,.87,.45,1.46,0,.24,0,.45-.02,.65-.01,.19-.04,.38-.08,.54-.04,.17-.11,.34-.2,.5-.1,.17-.23,.34-.4,.53-.07,.09-.14,.16-.23,.22-.09,.06-.18,.12-.27,.2-.22,.19-.48,.37-.78,.54-.29,.17-.58,.32-.86,.47v-.34c0-.23,0-.46,0-.69,0-.22,0-.43,0-.63,0-.24,0-.54,0-.88,0-.34,0-.67-.03-1-.01-.32-.02-.62-.02-.89,0-.27,0-.45,0-.55,0-.12,.02-.19,.08-.24Zm3.4,7.47c-.06,.35-.15,.72-.26,1.11-.02,.04-.08,.18-.18,.39-.1,.22-.25,.45-.44,.69-.2,.24-.44,.46-.73,.65-.29,.2-.64,.29-1.02,.29-.18,0-.32-.03-.43-.09-.1-.06-.18-.14-.24-.25-.07-.11-.11-.23-.13-.37-.02-.14-.03-.28-.03-.43v-.57c0-.11,0-.25,0-.4,0-.16,.02-.35,.04-.57v-.87c0-.29,0-.57,.02-.82,.05-.07,.21-.19,.46-.35,.25-.17,.52-.33,.81-.5,.29-.17,.55-.32,.8-.46,.25-.13,.4-.19,.46-.19,.11,0,.22,.04,.33,.14,.11,.09,.21,.21,.29,.37,.08,.15,.16,.32,.21,.51,.06,.19,.1,.38,.12,.57,.01,.42-.01,.81-.08,1.15Zm12.58,3.26c-.16-.24-.3-.52-.41-.83-.04-.08-.11-.24-.21-.5-.1-.25-.23-.54-.37-.86-.14-.32-.29-.67-.45-1.03-.16-.37-.31-.7-.45-1.03-.14-.32-.26-.58-.37-.8-.11-.22-.17-.35-.19-.4,.56-.34,1.01-.79,1.36-1.35,.35-.56,.52-1.25,.52-2.05,0-.3-.04-.64-.12-1.01-.08-.38-.23-.73-.45-1.06-.21-.33-.52-.61-.9-.82-.38-.22-.89-.32-1.52-.32-.18,0-.39,.01-.64,.04-.26,.03-.47,.07-.66,.12-.09,.03-.21,.09-.38,.17-.17,.08-.29,.12-.38,.12-.06,0-.1-.03-.12-.07-.03-.04-.06-.09-.09-.15-.02-.06-.05-.11-.07-.16-.03-.05-.06-.08-.11-.09h-.45c-.17,0-.33,0-.48,0-.15,0-.29,0-.42,0h-.26c-.12,0-.19,.01-.21,.05,0,.03,0,.07,.03,.12,.03,.05,.06,.11,.11,.18,.05,.07,.07,.15,.07,.22v2.47c0,.78,0,1.55,0,2.33,0,.78,0,1.58,0,2.4v2.99c0,.16,0,.31,0,.48,0,.17,0,.33-.02,.49,0,.15-.02,.26-.03,.32-.01,.04-.03,.1-.06,.16-.02,.06-.04,.12-.05,.18-.01,.06,0,.11,.02,.14,.02,.03,.07,.05,.15,.05h1.91c.05,0,.08-.02,.08-.07,0-.04-.03-.09-.06-.16-.04-.06-.07-.12-.11-.17-.04-.05-.07-.09-.08-.11-.08-.17-.12-.46-.13-.88,0-.42-.01-.95-.01-1.59v-1.27c0-.3,.01-.53,.04-.67,.03-.15,.08-.24,.15-.27,.08-.03,.18-.05,.33-.05,.21,0,.45,0,.72-.02,.26-.02,.5-.04,.71-.09,.02,.06,.08,.18,.15,.37,.08,.19,.17,.41,.28,.66,.11,.25,.22,.52,.35,.82,.12,.29,.23,.56,.34,.82,.11,.26,.2,.48,.27,.67,.08,.19,.12,.31,.14,.35,.12,.31,.22,.54,.3,.72,.08,.18,.12,.35,.12,.51,0,.12-.03,.22-.08,.3-.05,.08-.05,.12,0,.12h.34c.2,0,.43,0,.69,0,.26,.01,.53,.01,.78,.01h.59c.06,0,.1-.02,.11-.05,0-.04,0-.06-.03-.09-.02-.03-.11-.17-.27-.41Zm-2.93-6.98c-.23,.41-.53,.77-.89,1.04-.36,.28-.76,.42-1.21,.42-.33,0-.57-.05-.72-.14-.16-.09-.24-.32-.24-.68s0-.7-.02-1.04c-.01-.34-.02-.69-.02-1.06,0-.5,.02-.89,.06-1.18,.04-.29,.11-.52,.22-.69,.11-.16,.25-.3,.42-.4,.18-.1,.41-.2,.69-.32,.12-.06,.26-.09,.41-.11,.15-.01,.29-.02,.4-.02,.44,0,.77,.14,1.01,.41,.24,.28,.38,.63,.44,1.05,.06,.42,.03,.87-.07,1.36-.11,.49-.27,.95-.5,1.37Zm14.37,4.66c0,.15-.02,.28-.06,.37-.04,.1-.09,.19-.15,.28-.12,.21-.22,.39-.3,.54-.08,.15-.15,.29-.22,.43-.07,.13-.14,.28-.23,.42-.09,.15-.2,.31-.34,.5-.08,.12-.15,.21-.23,.25-.07,.05-.18,.07-.33,.07-.78,0-1.48,0-2.11,0-.64,0-1.26,0-1.84,.01-.58,0-1.16,0-1.73,0h-1.81c-.07,0-.11-.02-.11-.05,0-.03,0-.08,.02-.15,.02-.06,.05-.12,.08-.2,.03-.07,.04-.14,.04-.21,0-.08,0-.21,.02-.42,0-.2,.02-.44,.03-.73,0-.29,.03-.6,.04-.94,0-.34,.01-.68,.01-1.02,0-.72-.02-1.42-.02-2.09,0-.67-.02-1.34-.03-2-.02-.66-.03-1.32-.03-1.98-.02-.66-.04-1.34-.07-2.05,0-.11-.03-.21-.08-.31-.04-.09-.09-.17-.13-.24-.03-.07-.04-.12-.01-.16,.02-.04,.1-.06,.24-.06,1.32,0,2.53,0,3.64,.03,1.11,.02,2.1,0,2.95-.03,.16,0,.31-.05,.44-.1,.14-.06,.26-.09,.39-.09,.09,0,.17,.04,.24,.12,.06,.08,.12,.17,.19,.29,.06,.12,.12,.25,.17,.4,.06,.14,.12,.28,.17,.4,.09,.18,.18,.42,.28,.71,.09,.3,.15,.56,.16,.8,0,.05-.02,.1-.05,.14-.04,.04-.09,.05-.17,.04-.11-.01-.21-.07-.32-.19-.1-.12-.2-.26-.29-.42-.1-.16-.2-.33-.29-.51-.09-.18-.2-.33-.29-.45-.12-.16-.26-.25-.43-.29-.16-.04-.31-.07-.46-.08-.21-.01-.5-.02-.84-.02h-2.34c-.41,0-.76,0-1.06-.01v.62c0,.15,0,.31,.01,.51,0,.19,0,.46,0,.79v1.43c.23,.01,.5,.02,.81,.02,.3,0,.6,.01,.89,.01,.22,0,.44,0,.68-.01,.23,0,.43-.05,.59-.14,.1-.06,.19-.15,.27-.26,.08-.13,.15-.25,.22-.37,.08-.12,.15-.24,.23-.32,.09-.09,.18-.13,.3-.13,.05,0,.08,.03,.1,.1,.03,.06,.05,.15,.07,.25,.01,.1,.03,.21,.03,.33v.81c0,.13,0,.27,0,.42,0,.14,0,.28,0,.42v.18c0,.09,0,.17,0,.26,0,.08-.01,.16-.03,.22,0,.07-.03,.1-.05,.1-.18,0-.31-.05-.38-.16-.07-.11-.14-.22-.2-.36-.07-.13-.15-.26-.27-.38-.12-.12-.3-.19-.55-.23-.19-.02-.39-.02-.59-.02-.21,0-.4,0-.59,0-.27,0-.53,0-.79,.02-.26,.01-.52,.04-.78,.07,0,.19,0,.31,0,.37,0,.06,0,.13,0,.22,0,.1,0,.24,0,.44,0,.2,0,.51,0,.96v1.31c0,.49,0,.96,0,1.42,0,.46,0,.86,.01,1.21,0,.35,.02,.59,.04,.71,.22,0,.51-.01,.86-.02,.34,0,.7-.01,1.07-.03,.37,0,.73-.03,1.08-.07,.34-.04,.63-.08,.87-.13,.38-.09,.74-.2,1.06-.34,.33-.13,.64-.33,.93-.59,.19-.17,.34-.33,.46-.48,.12-.15,.24-.27,.36-.36,.11-.09,.22-.1,.34-.06,.12,.05,.18,.12,.18,.2Zm19.48,2.7c.02,.05,.04,.09,.03,.12,0,.02-.05,.04-.12,.04h-1.7c-.07,0-.1-.01-.1-.04,0-.02,.01-.05,.03-.09,.02-.04,.04-.08,.07-.13,.04-.04,.05-.09,.05-.13,.01-.17,.03-.3,.03-.41,0-.1,0-.21,0-.31v-4.07c0-.63,0-1.26,0-1.89s0-1.21,0-1.74v-1.98c0-.32,0-.6,0-.81,0-.21,0-.43,0-.65,0-.04-.01-.09-.05-.12-.04-.04-.06-.08-.07-.11-.01-.03-.02-.06,0-.08,.01-.02,.06-.02,.15-.02h1.59c.07,0,.11,.01,.11,.04,0,.03,0,.07-.02,.11-.03,.05-.05,.12-.08,.19-.03,.07-.04,.15-.04,.24,0,.06,0,.18,0,.36,0,.18,0,.41,0,.67s0,.53,0,.82c0,.29-.01,.56-.01,.8v5.4c0,.36,0,.72,.01,1.07,0,.35,0,.67,.01,.97,0,.3,.01,.57,.01,.8,0,.23,0,.41,0,.54,0,.09,.02,.17,.05,.24,.03,.07,.06,.13,.09,.18Zm11.21-12.43c.08,0,.12,.01,.14,.05,0,.03,0,.09-.02,.16-.02,.07-.05,.16-.07,.27-.03,.11-.04,.24-.04,.38,0,.54,.02,1.13,.03,1.8v2.06c0,.71-.02,1.42-.02,2.13,0,.71-.02,1.38-.02,2.01,0,.62,0,1.19,0,1.67s0,.88,.02,1.16v.57c0,.16,0,.25-.02,.29-.02,.03-.08,.05-.21,.05h-.22c-.22,0-.41-.09-.57-.27-.15-.18-.36-.46-.62-.86-.98-1.47-1.96-2.95-2.96-4.44-.98-1.5-1.96-2.98-2.91-4.42v8.51c0,.18,0,.35,.02,.53,0,.18,.03,.33,.05,.45,.04,.17,.07,.29,.1,.38,.04,.09-.02,.13-.17,.13h-.94c-.1,0-.16-.01-.17-.03-.01-.02,0-.06,.02-.13,.02-.06,.05-.13,.09-.24,.04-.1,.06-.23,.06-.4v-4.31c0-1.13,0-2.17-.03-3.12-.01-.95-.02-1.89-.02-2.81,0-.34-.01-.59-.04-.78-.03-.19-.09-.37-.17-.56-.02-.04-.05-.08-.06-.15-.02-.06,0-.09,.08-.09h1.62c.1,0,.17,.01,.21,.05,.04,.03,.07,.06,.09,.08,.12,.19,.27,.41,.43,.65,.16,.25,.3,.47,.42,.65,.13,.2,.33,.5,.58,.89,.25,.39,.53,.83,.84,1.32,.3,.49,.63,1,.98,1.53,.34,.54,.68,1.06,1,1.56,.33,.51,.62,.97,.89,1.38,.27,.42,.5,.75,.68,1v-.68c0-.47,0-.97,0-1.51,0-.54-.01-1.04-.02-1.54,0-.49-.01-.92-.02-1.29,0-.37,0-.62,0-.75v-.9c0-.31,0-.61,0-.88,0-.27-.02-.51-.04-.71-.02-.2-.05-.34-.1-.42,0-.01-.03-.04-.05-.09-.02-.05-.04-.1-.05-.14,0-.04,0-.09,0-.12,0-.04,.04-.06,.1-.06h1.12Zm12.65,2.65c.02,.07,.03,.13,.03,.19s-.02,.12-.07,.18c-.05,.06-.1,.1-.17,.12-.06,0-.11-.03-.16-.07-.05-.05-.1-.11-.14-.17-.04-.06-.09-.13-.13-.19-.04-.07-.07-.12-.09-.15-.47-.63-1.03-1.16-1.67-1.6-.23-.1-.46-.18-.72-.25-.25-.07-.52-.1-.77-.1-.76,0-1.4,.18-1.92,.54-.52,.36-.94,.82-1.25,1.37-.32,.55-.55,1.15-.69,1.8-.14,.65-.21,1.26-.21,1.82,0,.74,.07,1.45,.2,2.13,.13,.68,.36,1.28,.68,1.8,.32,.52,.74,.93,1.26,1.25,.53,.31,1.17,.47,1.95,.47,.35,0,.63-.02,.87-.05,.24-.03,.44-.06,.61-.11,.17-.05,.3-.11,.42-.19,.12-.07,.24-.15,.36-.23,.02-.54,.02-1.06,0-1.56,0-.51-.05-1.01-.11-1.5-.06-.49-.18-.97-.32-1.44-.14-.47-.34-.92-.59-1.36-.06-.12-.14-.23-.23-.33-.08-.1-.1-.15-.06-.15,.36,0,.75,0,1.18,0,.43,0,.83,0,1.2,0h.33c.06,0,.1,.04,.1,.14v.55c0,.25,0,.5,0,.76,0,.26,0,.49,0,.71v.45c0,.6,0,1.2,.02,1.81,0,.61,.03,1.21,.05,1.82-.29,.22-.6,.43-.95,.62-.35,.18-.71,.35-1.08,.48-.37,.14-.75,.25-1.15,.32-.39,.08-.77,.12-1.16,.12h-.57c-.19,0-.4-.03-.64-.1-.24-.07-.51-.18-.82-.34-.31-.15-.69-.4-1.14-.72-.76-.54-1.35-1.24-1.77-2.12-.42-.87-.62-1.95-.62-3.24,0-.83,.17-1.62,.5-2.35,.33-.73,.78-1.37,1.35-1.91,.56-.54,1.22-.97,1.97-1.29,.75-.31,1.53-.46,2.36-.46,.32,0,.64,.02,.94,.07,.3,.05,.6,.11,.89,.16,.11,.02,.22,.05,.32,.07,.1,.03,.19,.04,.28,.04,.07,0,.14-.03,.21-.09,.07-.06,.16-.09,.26-.09,.12,0,.21,.1,.31,.3,.1,.2,.18,.43,.26,.69,.07,.26,.14,.5,.18,.73,.05,.23,.07,.38,.09,.45,0,.07,.02,.14,.04,.21Z"/></svg>