<?xml version="1.0" encoding="UTF-8"?><svg id="Layer_1" xmlns="http://www.w3.org/2000/svg" viewBox="0 0 83.23 38.22"><defs><style>.cls-1{fill:#fff;}</style></defs><polygon class="cls-1" points="29.96 11.81 27.49 11.81 27.49 2.09 23.92 2.09 23.92 0 33.53 0 33.53 2.09 29.96 2.09 29.96 11.81"/><polygon class="cls-1" points="36.87 6.51 36.87 11.81 34.4 11.81 34.4 0 36.87 0 36.87 4.48 41.47 4.48 41.47 0 43.94 0 43.94 11.81 41.47 11.81 41.47 6.51 36.87 6.51"/><polygon class="cls-1" points="53.5 2.09 47.29 2.09 47.29 4.57 52.76 4.57 52.76 6.66 47.29 6.66 47.29 9.73 53.49 9.73 53.49 11.81 44.99 11.81 44.99 0 53.5 0 53.5 2.09"/><polygon class="cls-1" points="7.32 13.02 9.62 13.02 9.62 24.84 7.16 24.84 2.34 16.41 2.3 16.41 2.3 24.84 0 24.84 0 13.02 2.6 13.02 7.28 21.25 7.32 21.25 7.32 13.02"/><path class="cls-1" d="M16.42,12.71c1.57,0,5.68,.68,5.68,6.22s-4.11,6.21-5.68,6.21-5.68-.68-5.68-6.21,4.12-6.22,5.68-6.22m0,10.35c1.33,0,3.21-.82,3.21-4.13s-1.87-4.13-3.21-4.13-3.21,.82-3.21,4.13,1.88,4.13,3.21,4.13"/><polygon class="cls-1" points="39.5 24.84 37.04 24.84 37.04 15.11 33.46 15.11 33.46 13.02 43.06 13.02 43.06 15.11 39.5 15.11 39.5 24.84"/><polygon class="cls-1" points="46.42 19.54 46.42 24.83 43.96 24.83 43.96 13.02 46.42 13.02 46.42 17.5 51.02 17.5 51.02 13.02 53.49 13.02 53.49 24.83 51.02 24.83 51.02 19.54 46.42 19.54"/><path class="cls-1" d="M23.12,13.02h5.97c3.14,0,3.71,2.32,3.71,3.34,0,1.3-.66,2.42-1.83,2.81,.97,.43,1.5,.79,1.5,2.99,0,1.73,0,2.16,.53,2.35v.31h-2.73c-.16-.55-.26-1.17-.26-2.38,0-1.61-.1-2.24-1.93-2.24h-2.55v4.62h-2.42V13.02Zm5.32,5.2c1.28,0,1.91-.45,1.91-1.61,0-.62-.28-1.54-1.73-1.54h-3.08v3.16h2.9Z"/><polygon class="cls-1" points="18.29 37.86 15.83 37.86 15.83 26.05 24.23 26.05 24.23 28.14 18.29 28.14 18.29 30.8 23.49 30.8 23.49 32.89 18.29 32.89 18.29 37.86"/><path class="cls-1" d="M25.34,37.86h-2.6l4.21-11.81h2.85l4.16,11.81h-2.68l-.76-2.44h-4.36l-.82,2.44Zm1.48-4.47h3.01l-1.46-4.67h-.03l-1.52,4.67Z"/><path class="cls-1" d="M41.54,29.95c-.19-.71-.58-2.04-2.61-2.04-1.19,0-2.93,.79-2.93,4.13,0,2.12,.84,4.03,2.93,4.03,1.36,0,2.32-.78,2.61-2.22h2.47c-.49,2.57-2.17,4.36-5.13,4.36-3.14,0-5.4-2.12-5.4-6.2s2.38-6.23,5.43-6.23c3.53,0,4.96,2.44,5.09,4.18h-2.47Z"/><polygon class="cls-1" points="53.5 28.14 47.29 28.14 47.29 30.62 52.76 30.62 52.76 32.71 47.29 32.71 47.29 35.77 53.49 35.77 53.49 37.86 44.99 37.86 44.99 26.05 53.5 26.05 53.5 28.14"/><path class="cls-1" d="M12.47,34.6c.99,0,1.82,.78,1.82,1.8s-.83,1.82-1.82,1.82-1.83-.78-1.83-1.82,.83-1.8,1.83-1.8m0,3.36c.84,0,1.49-.67,1.49-1.56s-.65-1.54-1.49-1.54-1.5,.67-1.5,1.54,.65,1.56,1.5,1.56m-.71-2.61h.82c.5,0,.74,.2,.74,.61,0,.38-.24,.54-.56,.58l.61,.94h-.35l-.58-.91h-.35v.91h-.33v-2.12Zm.33,.94h.34c.29,0,.56-.01,.56-.35,0-.28-.24-.33-.46-.33h-.44v.67Z"/><path class="cls-1" d="M83.23,27.37c0-15.13-12.24-27.37-27.37-27.37h-.54V11.81h.54c8.8,0,15.94,7.07,16.04,15.85h0v10.2h11.33v-10.48Z"/><path class="cls-1" d="M55.86,26.05h-.54v11.81h5.66v-6.69c0-2.83-2.29-5.12-5.12-5.12"/><path class="cls-1" d="M70.69,27.8c-.03-8.16-6.65-14.76-14.82-14.77h-.56v11.81h.54c3.5,0,6.33,2.83,6.33,6.33v6.69h8.5v-10.06Z"/></svg>