<?xml version="1.0" encoding="UTF-8"?><svg id="Layer_1" xmlns="http://www.w3.org/2000/svg" viewBox="0 0 548.79 329.89"><defs><style>.cls-1{fill:#fff;}</style></defs><path class="cls-1" d="M394.58,151.31v22.65h53.85v27.27h-53.85v22.65h53.85v27.27h-92.62c-5.49,0-9.95-4.45-9.95-9.95V124.04h102.57v27.27h-53.85Zm73.68,99.82h39.01c5.36,0,9.71-4.35,9.71-9.71V124.04h-48.72v127.09Zm-128.53,29.42v15.5c0,8.46-6.88,15.34-15.34,15.34h-41.02c-8.46,0-15.34-6.88-15.34-15.34v-15.5c0-8.46,6.88-15.34,15.34-15.34h41.02c8.46,0,15.34,6.88,15.34,15.34Zm-13.92,0c0-.77-.65-1.42-1.42-1.42h-41.02c-.77,0-1.42,.65-1.42,1.42v15.5c0,.77,.65,1.42,1.42,1.42h41.02c.77,0,1.42-.65,1.42-1.42v-15.5Zm-132.04,0v15.5c0,8.46,6.88,15.34,15.34,15.34h50.52v-13.92h-50.52c-.77,0-1.42-.65-1.42-1.42v-15.5c0-.77,.65-1.42,1.42-1.42h50.52v-13.92h-50.52c-8.46,0-15.34,6.88-15.34,15.34Zm243.11,0v15.5c0,8.46-6.88,15.34-15.34,15.34h-41.02c-8.46,0-15.34-6.88-15.34-15.34v-15.5c0-8.46,6.88-15.34,15.34-15.34h41.02c8.46,0,15.34,6.88,15.34,15.34Zm-13.92,0c0-.77-.65-1.42-1.42-1.42h-41.02c-.77,0-1.42,.65-1.42,1.42v15.5c0,.77,.65,1.42,1.42,1.42h41.02c.77,0,1.42-.65,1.42-1.42v-15.5Zm94.03,0v15.5c0,8.46-6.88,15.34-15.34,15.34h-42.44v18.49h-13.92v-64.68h56.36c8.46,0,15.34,6.88,15.34,15.34Zm-13.92,0c0-.77-.65-1.42-1.42-1.42h-42.44v18.34h42.44c.77,0,1.42-.65,1.42-1.42v-15.5Zm-150.02-1.03c-.32-.52-.84-.52-1.16,0l-4.8,7.84c-.32,.52-.32,1.37,0,1.89l4.8,7.84c.32,.52,.84,.52,1.16,0l4.8-7.84c.32-.52,.32-1.37,0-1.89l-4.8-7.84ZM436.64,33.47l80.33,70.13h-20.15l-59.56-50.82-46.64,50.84L300.14,22.43l-76.54,101.68h13.86c2.79,0,5.06,2.26,5.06,5.06v12.65l34.8-17.71h48.72v66.54l-19.2,19.2,28.12,41.36h-54.67l-22.63-33.29h-15.15v33.29h-48.73v-87.46l-52.09,69.2,34.64,78.46L0,265.21l37.44-77.54-19.97-.02,31.68-63.61h-14.89L81.25,33.28l48.09,90.76h-14.89l18.8,38.89L295.88,0l10.18,9.17,.06-.07,78.29,68.35,52.23-43.98ZM242.49,187.66h34.82v-36.08l-34.8,17.71-.02,18.37Z"/><g><polygon class="cls-1" points="531.87 124.02 521.58 124.02 521.58 125.75 525.65 125.75 525.65 137.02 527.8 137.02 527.8 125.75 531.87 125.75 531.87 124.02"/><polygon class="cls-1" points="548.79 124.02 545.5 124.02 541.68 133.89 537.8 124.02 534.49 124.02 534.49 137.02 536.63 137.02 536.63 126.16 536.7 126.16 540.96 137.02 542.32 137.02 546.58 126.16 546.64 126.16 546.64 137.02 548.79 137.02 548.79 124.02"/></g></svg>