<?xml version="1.0" encoding="UTF-8"?><svg id="Layer_1" xmlns="http://www.w3.org/2000/svg" viewBox="0 0 600 292.3"><defs><style>.cls-1{fill:#fff;}</style></defs><path class="cls-1" d="M208.62,102.78c-.98,1.54-1.93,3.17-2.8,4.95-.16,.31-.31,.64-.47,.94-12.75,26.38-4.62,48.02,3.31,55.75,3.77,3.68,9.38,6.46,16.32,6.76,1.61,.08,3.32,.03,5.07-.18,.15-.02,.32-.05,.47-.07,6.69-.9,14.28-3.97,22.44-10.3,14.27-11.1,21.58-25.85,24.73-33.78,1.5,10.29,2.29,20.93,2.51,23.49s.29,4.67,.29,4.67c5.56-2.87,12.44-4.96,18.08-5.68,0,0,3.78-5.9,4.05-6.29,.27-.44,4.05-6.93,6.42-11.04,2.37-4.11,7.34-14.5,7.81-15.6,2.78-6.25,5.19-12.75,6.66-18.95,.14-.53,.24-1.02,.36-1.55,1.01,.7,2.8,1.36,3.38,1.55,1.73,.56,4.37,1.06,6.44,1.01,.93-.02,2.39-.09,4.48-.75,3.1-.9,6.24-2.65,9.23-5.28-1.04,8.76-1.71,17.89,0,24.65,3.37,13.17,13.59,12.67,19.86,11.01,2.7-.72,5.86-1.97,9.17-4.01,8.82-5.41,18.84-16.39,24.86-37.74,.08,.53,.15,1.05,.24,1.61,1.49,10.3,2.3,20.93,2.51,23.48,.19,2.58,.29,4.68,.29,4.68h.05c.27-.13,.57-.24,.84-.36l-.44,.14c5.46-2.77,12.14-4.76,17.63-5.46,0,0,3.78-5.9,4.05-6.29,.27-.44,4.05-6.94,6.42-11.04s7.34-14.5,7.81-15.6c2.37-5.36,4.48-10.86,5.94-16.24,.26-.9,.86-3.37,1.03-4.3,.39-1.76,.78-3.47,1.1-5.16,3.67,1.74,7.86,2.76,12.08,3.28,.02,0,.03,.02,.05,0,1.9,.25,3.81,.37,5.67,.42,.77,11.67,5.35,20.54,9.86,24.94,6.15,6.04,16.71,9.21,30.33,4.03,25.73-9.78,32.17-36.19,32.17-36.19-4.52,3.08-13.02,6.93-17.28,6.68-.7,6.24-7.66,16.42-18.57,15.7-7.65-.52-13.58-6.75-15.42-17.53,11.47-2.63,22.66-8.63,29.99-18.16,3.73-4.86,8.46-15.4,4.71-24.57-2.86-6.92-9.19-10.75-15.87-10.39-5.33,.32-22.59,3.07-32.93,23.75-4.11,8.21-6.18,15.98-6.85,23.06-2.66-.32-5.6-.86-8.51-1.79-3.19-1.02-5.73-2.5-7.72-4.01t-.04-.04c1.43-14.29-.83-24.01-7.48-25.53-3.03-.69-6.46,.72-8.68,4.19-.14,.28-.32,.54-.46,.84-.94,1.75-1.56,3.92-1.74,6.54-.04,.37-.07,2.23-.03,2.75,.02,.46,.03,.91,.1,1.38,.6,5.58,3.24,10.39,7.76,14.58-.23,.99-.49,2.2-.72,3.35-.14,.69-.29,1.37-.43,2.06-1.82,7.75-5.1,15.11-6.47,18.33-1.51,3.52-4.02,8.34-5.38,10.45-1.41,2.22-3.82,5.71-6.17,8.58-.4,.48-1.1,1.28-1.52,1.6v-.02c-.51-2.43-5.43-26.49-7.85-60.86-4.88,2.07-9.81,3.6-14.85,4.44-2.47,.44-4.96,.69-7.47,.78,0,0,1.46,4.56,2.99,9.52,2.88,9.32,5.29,19.71,5.66,21.44,.24,1.15,.72,3.45,1.16,5.75-2.98,9.3-10.7,29.49-23.06,35.06-13.27,5.99-10.18-13.9-8.76-27.57,1.2-11.45,6.02-35.9,6.34-37.41,.02-.03,0-.05,0-.08-4.54,1.94-9.11,3.38-13.79,4.23-.36,.09-.7,.14-1.06,.21-2.47,.44-4.96,.69-7.47,.78,0,0-.38,15.11-1.82,30.76-.07,.66-.14,1.35-.22,2.07-2.48,2.96-7.31,7.65-13.45,7.99-.22,.02-.46,.02-.69,.01-1.41-.05-2.76-.37-4.41-1.15-1.27-.61-3.38-2.2-4.19-3.37,2.03-15.81-.08-26.7-7.15-28.33-3.03-.69-6.46,.72-8.68,4.19-.14,.28-.32,.54-.46,.83-1.06,2-1.74,4.57-1.8,7.72-.16,7.15,2.21,14.45,7.18,20.89-.08,.3-.16,.68-.24,1.09-1.74,8.09-5.23,15.93-6.65,19.3-1.49,3.52-4.02,8.32-5.38,10.45-1.72,2.69-4.9,7.29-7.67,10.35,0,0-5.33-24.8-7.88-61.06-4.88,2.07-9.81,3.6-14.85,4.44-2.47,.44-4.96,.69-7.47,.78,0,0,.09,.27,.23,.7h0s0,0,0,0c.47,1.45,1.6,5.01,2.78,8.82,2.88,9.3,5.28,19.71,5.64,21.44,.36,1.73,1.27,6.05,1.74,9.06-9.84,26.21-29.43,41.92-40.29,41.28-5.42-.3-9.99-3.58-12.84-9.29-1.17-2.32-2.04-5.1-2.58-8.21,11.49-2.66,22.68-8.64,30.01-18.19,3.71-4.83,8.46-15.4,4.69-24.56-2.84-6.92-9.17-10.75-15.87-10.37-4.81,.26-19.39,2.55-29.79,18.25-.1,.18-.22,.35-.33,.51ZM487.12,42.93c.57-10.51,6.93-26.32,12.95-30.08,6.97-4.32,8.17,4.87,6.38,11.32-2.49,8.96-7.7,13.92-11.91,17.22-2.2,1.72-4.87,2.84-7.46,3.57,0-.67,.02-1.34,.05-2.04ZM219.4,126.9c.55-10.5,6.93-26.32,12.93-30.05,6.97-4.34,8.16,4.84,6.38,11.32-2.49,8.96-7.7,13.92-11.92,17.2-2.17,1.73-4.84,2.85-7.46,3.57,.02-.67,.04-1.34,.07-2.05Zm264.33-25.83c-19.17,5.07-36.64,11.84-52.51,19.11-1.41,.65-2.78,1.28-4.13,1.94l-.12,.04c-7.77,3.67-15.1,7.41-22.07,11.08-23.9,12.68-47.63,26.21-70.94,37.68-15.03,7.39-29.9,13.9-44.51,18.77-19.23,6.42-35.7,9.7-50.48,8.17-.15,0-.34-.02-.5-.05-.05,0-.08-.02-.13-.01-1.78-.21-3.53-.46-5.25-.81-6.45-1.28-12.55-3.57-18.48-7.01-27.01-15.76-29.19-44.21-51.77-56.06-5-2.63-11.03-4.45-18.58-5.13l-.68-.04c4.12-1.32,8.23-2.76,12.06-4.28,17.08-6.75,35.4-19.22,43.5-35.55,1.13-2.28,2.08-4.63,2.78-7.05,.02-.08,.03-.16,.06-.22,1.56-5.49,1.93-11.32,.74-17.46-1.89-9.94-6.8-16.91-13.08-21.8-.06-.03-.1-.07-.17-.13-1.96-1.51-4.06-2.82-6.24-3.96-11.31-5.9-24.81-7.1-33.4-7.45-7.11-.28-16.19,.68-23.1,1.85-2.83,.38-49.71,7.11-75.37,38.77-27.4,33.77-17.6,69.62,12.82,80.8,0,0-6.2-14.68,1.53-36-24.96-20.73,9.28-64.7,47.82-72.22-4.04,2.4-10.43,9.89-14.47,18.38-9.76,20.57-4.46,54.99-3.44,77.96,1.29,29.07,5.6,68.25-16.98,87.9-22.82,19.86-47.03,15.98-55.04,13.06,0,0-1.85,10.35-7.49,22.5-7.05,15.23-14.64,23.41-14.64,23.41,0,0,26.19,11.41,62.95-.14,34.66-10.89,54.54-42.32,56.89-84.86,1.22-21.91-1.39-44.49-3.74-66.33,.57-.13,1.24-.29,1.98-.47,3.94-.6,10.8-1.03,18.71,3.6,2.49,1.47,4.73,3.05,6.75,4.75,12.88,10.66,17.96,25.7,26.59,40.34,16.43,27.9,41.84,45.16,72.72,48.58,1.4,.15,2.83,.29,4.27,.38,.29,.04,.58,.05,.87,.06,.05,0,.08,0,.13,.01,.16,.03,.34,.02,.49,.02,31.87,1.75,65.96-9.55,96.2-23.09,7.3-3.27,14.41-6.68,21.16-10.06,22.94-11.49,46.93-27.07,71.93-38.46,.02-.03,.06-.05,.11-.06,1.36-.63,2.76-1.25,4.15-1.87,28.35-12.29,57.95-18.66,88.76-7.07,14.27-20.34,37.3-38.14,66.13-51.29-36.83-12.24-77.12-10.22-114.79-.26ZM116.57,126.47c-2.29-22.37-5.61-44.14-1.54-62.82,2.45-11.28,9.19-19.52,15.33-21.45,6.46-2.03,21.45-1.56,34.47,7.27,14.17,9.62,19.87,35.35,1.99,53.83-13.17,13.64-39.68,20.79-50.26,23.17ZM350.64,22.32c-.53-8.93,5.35-16.65,14.05-17.12,5.67-.32,12.69,4.83,12.08,13.97-.6,9.11-7.03,14.82-13.53,15.17-5.06,.28-12.09-3.09-12.59-12.01Z"/></svg>