<?xml version="1.0" encoding="UTF-8"?><svg id="Layer_1" xmlns="http://www.w3.org/2000/svg" viewBox="0 0 169.27 75.84"><defs><style>.cls-1{fill:#fff;}</style></defs><path class="cls-1" d="M140,20.92h-4.96s-.38,2.41-.41,2.58c-.28,1.8,.6,3.33,1.68,4.14,.04,.03,.08,.06,.12,.09,.03,.02,.07,.05,.1,.07,0,0,.23,.16,.15,.4-.09,.27-.36,.26-.36,.26h-10.23s-.27,0-.35-.27c-.07-.28,.18-.41,.18-.41,.03-.02,.06-.05,.1-.07,.43-.31,.93-.71,1.4-1.23,1.25-1.36,1.65-2.67,1.87-3.43,.32-1.08,.57-2.38,1.43-6.55,.97-4.74,1.45-7.66,1.45-8.78,0-.97-.13-1.61-.31-2.04-.22-.52-.6-1.19-1.34-1.77-.03-.02-.06-.04-.08-.06,0,0-.22-.14-.13-.44,.07-.21,.33-.22,.33-.22h18.75s.26,0,.33,.22c.09,.3-.13,.44-.13,.44-.03,.02-.06,.04-.08,.06-.74,.57-1.12,1.25-1.34,1.77-.18,.43-.31,1.07-.31,2.04,0,1.11,.48,4.04,1.46,8.78,.86,4.16,1.11,5.47,1.43,6.55,.22,.75,.62,2.07,1.87,3.43,.47,.51,.96,.92,1.4,1.23,.03,.02,.06,.05,.1,.07,0,0,.25,.13,.18,.41-.08,.28-.35,.27-.35,.27h-10.23s-.27,.01-.36-.26c-.07-.24,.15-.4,.15-.4,.03-.02,.07-.04,.1-.07,.04-.03,.08-.06,.12-.09,1.08-.81,1.96-2.34,1.68-4.14-.03-.18-.41-2.58-.41-2.58h-4.96Zm0-4.42h4.23s-1.1-7.07-1.46-9.15h-5.55c-.36,2.08-1.45,9.15-1.45,9.15h4.23Z"/><path class="cls-1" d="M70.89,28.25c-.07,.23-.33,.21-.33,.21h-25.59s-.28,0-.36-.28c-.08-.28,.18-.4,.18-.4,0,0,.04-.02,.06-.03,1.39-.84,2.55-2.36,2.55-4.35V8.3c0-2.38-1.27-3.7-2.36-4.4-.02-.01-.04-.03-.06-.04,0,0-.26-.19-.13-.45,.11-.2,.32-.2,.32-.2h24.54s.27,0,.39,.2c.13,.22-.08,.42-.08,.42,0,0-.03,.03-.04,.05-1.36,1.59-5.88,6.37-5.88,6.37,0,0-.21,.19-.41,.08-.21-.12-.2-.3-.2-.3,0,0,0-.02,0-.03-.19-1.34-1.36-2.22-2.33-2.22h-8.94v5.87h5.39c1.79,0,3.02-.86,3.66-2.04,0-.01,.02-.03,.02-.04,0,0,.09-.19,.3-.11,.17,.07,.16,.24,.16,.24v8.2s0,.21-.18,.26c-.21,.06-.32-.16-.32-.16-.01-.02-.02-.04-.03-.06-.78-1.35-2.24-1.92-3.24-1.92h-5.76v5.92h9.71c1.22,0,2.35-1.12,2.44-2.43,0-.02,0-.05,0-.05,0,0,0-.25,.23-.36,.2-.09,.37,.1,.37,.1l5.8,6.62s.19,.18,.11,.43"/><path class="cls-1" d="M42.04,28.17c-.04,.31-.36,.29-.36,.29h-9.21s-.36,0-.36-.36c0-.22,.18-.31,.18-.31,.02,0,.03-.02,.05-.03,1.22-.82,2.3-2.31,2.3-4.38V8.31c0-1.75-.85-3.41-2.41-4.43,0,0-.02-.01-.03-.02,0,0-.21-.16-.14-.37,.08-.28,.35-.28,.35-.28h9.31s.27,0,.35,.27c.07,.26-.16,.4-.16,.4-.01,0-.02,.01-.03,.02-1.24,.83-2.4,2.29-2.4,4.39v15.11c0,1.84,.92,3.44,2.35,4.39,.02,.01,.03,.02,.05,.03,0,0,.2,.1,.17,.36"/><path class="cls-1" d="M26.7,67.98c-.08,.27-.34,.26-.34,.26h-8.82s-.26,0-.33-.23c-.08-.27,.14-.43,.14-.43,.01-.01,.03-.02,.04-.03,.9-.61,1.46-1.4,1.76-1.99l-10.94-14.79v24.71s0,.28-.25,.34c-.3,.08-.43-.19-.43-.19,0-.01-.01-.02-.02-.03-2.17-4.64-5.96-7.04-7.35-7.8-.01,0-.02-.01-.03-.02,0,0-.14-.08-.13-.22,.01-.19,.15-.25,.15-.25,.02,0,.03-.02,.05-.02,2.59-1.2,3.17-3.62,3.17-4.82v-14.39c0-2.05-1.12-3.54-2.41-4.4-.01-.01-.03-.02-.05-.03,0,0-.25-.18-.13-.43,.1-.21,.33-.22,.33-.22H12.58s.25,0,.33,.21c.1,.29-.12,.45-.12,.45-.02,.01-.03,.02-.05,.03-.87,.58-1.51,1.38-1.83,2.08l8.45,11.06v-6.58c0-2.4-1.46-4.05-3.09-4.81-.01,0-.03-.01-.05-.02,0,0-.16-.07-.16-.24,0-.19,.21-.26,.21-.26,.01,0,.03-.01,.04-.02,1.44-.59,4.7-2.19,7.19-5.42,.02-.02,.03-.04,.04-.05,0,0,.14-.19,.39-.12,.26,.08,.24,.34,.24,.34v23.53c0,1.9,.98,3.47,2.34,4.38,0,0,.02,.01,.03,.02,0,0,.23,.14,.15,.39"/><path class="cls-1" d="M93.29,35.76c-.26,.04-.4-.21-.4-.21l-7.54-15.16c-2.04-.19-3.88-.67-5.92-1.55v4.56c0,2,1.06,3.5,2.37,4.38,.01,.01,.03,.02,.04,.03,0,0,.2,.13,.15,.38-.06,.28-.35,.28-.35,.28h-9.25s-.26,0-.33-.22c-.08-.28,.14-.44,.14-.44,.02-.02,.05-.03,.07-.05,1.54-1.04,2.34-2.71,2.34-4.36V11.08c0-1.99-1.22-3.99-3.08-4.81-.02,0-.03-.01-.05-.02,0,0-.14-.06-.14-.24s.16-.23,.16-.23c.01,0,.03-.01,.04-.02,1.41-.58,4.68-2.21,7.23-5.57,.01-.01,.02-.03,.03-.04,0,0,.16-.21,.38-.13,.25,.08,.25,.34,.25,.34V3.23c.06,.29,.38,.2,.38,.2,2.29-1.01,4.07-1.49,5.97-1.51,2.71-.02,5.21,.79,7.31,2.48,2.25,1.83,3.33,4.16,3.33,6.89,0,1.4-.35,3.08-1.61,4.77-1.19,1.6-2.89,2.88-4.26,3.42l2.75,5.2c1.23,2.19,3.11,2.69,4.31,2.78,.02,0,.03,0,.05,0,0,0,.16,.02,.24,.17,.07,.12-.06,.29-.06,.29,0,0-.02,.02-.03,.03-.99,1.02-3.22,3.65-4.23,7.42,0,.02-.01,.04-.02,.06,0,0-.07,.29-.28,.33m-2.15-24.83c0-1.2-.78-2.17-1.48-2.79-.77-.67-2.52-1.48-4.11-1.48-1.5,0-2.89,.29-4.06,1.05-1.43,.87-2.06,2.07-2.06,3.62,0,1.14,.95,2.54,2.14,3.21,1.1,.62,2.37,.99,3.8,.99,1.36,0,2.65-.42,3.69-1.07,1.31-.82,2.09-1.99,2.09-3.53"/><path class="cls-1" d="M30,21.51c0,2.38-1.45,4.78-3.61,6.08-1.94,1.18-4.34,1.79-6.35,1.78-1.8,0-4.08-.21-6.22-1.16-1.97-.88-4.17-1.57-7.04-.78-.01,0-.02,0-.03,0,0,0-.26,.08-.4-.15-.14-.22,.04-.43,.04-.43l6.92-7.77s.16-.19,.4-.1c.25,.1,.2,.38,.21,.36,0-.02,0,.04,0,.06-.04,.26-.05,.51-.05,.75,0,1.54,.59,2.95,1.95,3.7,1.04,.65,2.46,.9,3.97,.9,1.11,0,4.58-.61,4.58-3.26,0-1.29-1.12-2.56-4.04-3.12-4.67-.9-6.83-2.04-7.22-2.23-2.05-1-4.19-3.28-4.25-5.79-.07-2.86,.97-4.65,2.96-6.14,1.72-1.29,4-1.94,6.03-1.94,1.62,0,3.53,.31,5.96,1.43,1.12,.52,3.07,.82,4.88,.53,.02,0,.04,0,.06-.01,0,0,.28-.08,.43,.12,.18,.24-.05,.47-.05,.47l-6.29,6.99s-.14,.18-.41,.1c-.2-.06-.22-.27-.22-.27v-.07c0-2.82-1.21-4.55-4.12-4.55-2.28,0-3.66,1.12-3.66,2.59,0,1.61,1.42,2.27,4.12,3.06,4.27,1.29,6.33,1.86,7.48,2.53,2.39,1.39,3.98,3.85,3.98,6.3"/><path class="cls-1" d="M79.86,51.73l-5.58,13.82c.42,.81,1.09,1.5,1.91,1.99,.02,.01,.04,.02,.07,.04,0,0,.24,.13,.19,.38-.06,.3-.36,.28-.36,.28h-12.67s-.28,0-.36-.27c-.06-.21,.19-.39,.19-.39,.03-.01,.05-.03,.08-.04,1.01-.6,1.69-1.43,1.89-1.99l-7.12-17.69c-.55-1.33-1.87-3.11-3.75-4.19-.01,0-.03-.01-.04-.02,0,0-.25-.15-.15-.42,.08-.24,.33-.24,.33-.24h10.55s.25,0,.33,.22c.12,.31-.14,.44-.14,.44-.02,.01-.04,.02-.05,.04-.99,.66-1.53,1.48-1.79,2.03l6.37,16.76c1.53-3.82,6.96-17.87,8.56-22.96,0-.02,.02-.04,.02-.07,0,0,.07-.26,.34-.23,.28,.03,.33,.24,.33,.24,0,.02,0,.03,.01,.05,.47,2.01,1.71,5.59,4.97,8.65,.01,.01,.02,.02,.03,.03,0,0,.13,.1,.08,.26-.05,.16-.21,.19-.21,.19-.01,0-.03,0-.04,0-1,.19-2.98,.84-3.98,3.09"/><path class="cls-1" d="M131.21,54.86c0-1.98-.48-3.73-1.45-5.24-1.22-1.84-2.94-2.76-5.17-2.76-1.29,0-2.5,.49-3.63,1.46-1.13,.97-1.7,2.14-1.7,3.51v11.61s2.64,.04,5.55,0c2.44-.04,4.2-1.24,5.28-3.3,.75-1.47,1.13-3.24,1.13-5.29m-19.15,13.39h-.07s-.26-.01-.33-.23c-.09-.24,.1-.39,.1-.39,.01-.01,.02-.03,.04-.04,1.29-1.28,2.29-3.02,2.4-4.9v-13.41c-.21-2.16-1.77-3.01-2.79-3.33-.02,0-.05-.02-.07-.02,0,0-.18-.08-.21-.29-.04-.23,.19-.37,.19-.37,.01,0,.03-.02,.04-.03,1.47-.92,4.58-2.99,7.03-5.56,.01-.01,.03-.03,.04-.04,0,0,.18-.18,.43-.03,.2,.11,.18,.37,.18,.37,0,.02,0,.05,0,.07-.07,1.19-.2,2.9-.2,3.24,0,.42,.38,.47,.53,.38,.74-.49,2.25-1.11,2.64-1.22,.68-.25,1.64-.47,2.9-.47,1.54,0,2.73,.26,3.51,.58,3.23,1.33,5.46,3.18,6.68,5.55,.93,1.76,1.4,4.02,1.4,6.78,0,4.45-1.19,7.84-3.58,10.15-2.39,2.31-4.76,3.21-9.11,3.21h-11.74Z"/><path class="cls-1" d="M95.57,60.71h-4.96s-.38,2.41-.41,2.58c-.28,1.8,.6,3.33,1.68,4.14,.04,.03,.08,.06,.12,.09,.03,.02,.07,.05,.1,.07,0,0,.23,.16,.15,.4-.09,.27-.36,.26-.36,.26h-10.24s-.27,0-.35-.27c-.08-.28,.18-.41,.18-.41,.03-.02,.07-.05,.1-.07,.43-.31,.93-.71,1.4-1.23,1.25-1.36,1.65-2.67,1.87-3.43,.32-1.08,.57-2.38,1.43-6.55,.97-4.74,1.45-7.66,1.45-8.78,0-.97-.13-1.61-.32-2.04-.22-.52-.6-1.19-1.34-1.77-.03-.02-.05-.04-.08-.06,0,0-.22-.14-.13-.44,.07-.21,.33-.22,.33-.22h18.75s.26,0,.33,.22c.09,.3-.13,.44-.13,.44-.03,.02-.06,.04-.09,.06-.74,.57-1.12,1.25-1.34,1.77-.18,.43-.31,1.07-.31,2.04,0,1.11,.48,4.04,1.45,8.78,.86,4.16,1.11,5.47,1.43,6.55,.21,.75,.62,2.07,1.86,3.43,.47,.51,.96,.92,1.4,1.23,.03,.02,.07,.05,.1,.07,0,0,.25,.13,.18,.41-.08,.28-.35,.27-.35,.27h-10.23s-.27,.01-.36-.26c-.08-.24,.15-.4,.15-.4,.03-.02,.07-.04,.1-.07,.04-.03,.08-.06,.12-.09,1.08-.81,1.96-2.34,1.68-4.14-.03-.18-.41-2.58-.41-2.58h-4.96Zm0-4.42h4.22s-1.09-7.07-1.45-9.15h-5.55c-.36,2.08-1.45,9.15-1.45,9.15h4.23Z"/><path class="cls-1" d="M150.76,60.71h-4.96s-.38,2.41-.41,2.58c-.28,1.8,.6,3.33,1.68,4.14,.04,.03,.08,.06,.12,.09,.03,.02,.07,.05,.1,.07,0,0,.23,.16,.15,.4-.09,.27-.36,.26-.36,.26h-10.24s-.27,0-.35-.27c-.07-.28,.18-.41,.18-.41,.03-.02,.07-.05,.1-.07,.43-.31,.92-.71,1.4-1.23,1.25-1.36,1.65-2.67,1.86-3.43,.33-1.08,.57-2.38,1.43-6.55,.97-4.74,1.46-7.66,1.46-8.78,0-.97-.13-1.61-.31-2.04-.22-.52-.6-1.19-1.34-1.77-.03-.02-.06-.04-.08-.06,0,0-.22-.14-.13-.44,.07-.21,.33-.22,.33-.22h18.75s.26,0,.33,.22c.09,.3-.13,.44-.13,.44-.03,.02-.06,.04-.09,.06-.74,.57-1.12,1.25-1.34,1.77-.18,.43-.31,1.07-.31,2.04,0,1.11,.48,4.04,1.45,8.78,.86,4.16,1.11,5.47,1.43,6.55,.21,.75,.62,2.07,1.87,3.43,.47,.51,.96,.92,1.4,1.23,.03,.02,.06,.05,.1,.07,0,0,.25,.13,.18,.41-.08,.28-.35,.27-.35,.27h-10.23s-.27,.01-.36-.26c-.07-.24,.15-.4,.15-.4,.03-.02,.07-.04,.1-.07,.04-.03,.08-.06,.12-.09,1.08-.81,1.96-2.34,1.68-4.14-.03-.18-.41-2.58-.41-2.58h-4.96Zm0-4.42h4.23s-1.09-7.07-1.45-9.15h-5.54c-.36,2.08-1.46,9.15-1.46,9.15h4.23Z"/><path class="cls-1" d="M55.43,68.04c-.07,.23-.33,.21-.33,.21H29.52s-.28,0-.36-.28c-.08-.28,.18-.4,.18-.4,0,0,.04-.02,.06-.03,1.39-.83,2.55-2.36,2.55-4.35v-15.1c0-2.38-1.27-3.7-2.36-4.4-.02-.01-.04-.02-.06-.04,0,0-.26-.19-.13-.45,.11-.2,.32-.2,.32-.2h24.54s.27,0,.39,.2c.13,.22-.08,.42-.08,.42,0,0-.03,.03-.04,.05-1.36,1.59-5.88,6.37-5.88,6.37,0,0-.21,.19-.4,.08-.21-.12-.2-.3-.2-.3,0,0,0-.02,0-.03-.19-1.34-1.36-2.22-2.33-2.22h-8.94v5.87h5.38c1.79,0,3.03-.86,3.66-2.04,0-.01,.02-.03,.02-.04,0,0,.09-.19,.3-.11,.17,.07,.16,.24,.16,.24v8.2s0,.21-.18,.26c-.22,.06-.32-.16-.32-.16-.01-.02-.02-.04-.04-.06-.78-1.35-2.24-1.92-3.24-1.92h-5.76v5.92h9.71c1.22,0,2.35-1.12,2.43-2.43,0-.02,0-.05,0-.05,0,0,0-.25,.24-.36,.2-.09,.37,.1,.37,.1l5.8,6.62s.19,.18,.11,.43"/><path class="cls-1" d="M120.49,35.76c-.27,.04-.4-.21-.4-.21l-7.54-15.16c-2.04-.19-3.88-.67-5.92-1.55v4.56c0,2,1.06,3.5,2.37,4.38,.02,.01,.03,.02,.04,.03,0,0,.2,.13,.15,.38-.06,.28-.35,.28-.35,.28h-9.25s-.26,0-.33-.22c-.08-.28,.14-.44,.14-.44,.02-.02,.05-.03,.07-.05,1.54-1.04,2.34-2.71,2.34-4.36V11.08c0-1.99-1.22-3.99-3.08-4.81-.02,0-.03-.01-.05-.02,0,0-.14-.06-.14-.24s.16-.23,.16-.23c.01,0,.03-.01,.04-.02,1.41-.58,4.68-2.21,7.23-5.57,0-.01,.02-.03,.03-.04,0,0,.16-.21,.38-.13,.25,.08,.25,.34,.25,.34V3.23c.06,.29,.38,.2,.38,.2,2.29-1.01,4.08-1.49,5.97-1.51,2.71-.02,5.21,.79,7.31,2.48,2.25,1.83,3.33,4.16,3.33,6.89,0,1.4-.35,3.08-1.61,4.77-1.19,1.6-2.89,2.88-4.26,3.42l2.75,5.2c1.23,2.19,3.12,2.69,4.31,2.78,.02,0,.03,0,.05,0,0,0,.15,.02,.24,.17,.07,.12-.06,.29-.06,.29,0,0-.02,.02-.03,.03-.99,1.02-3.22,3.65-4.23,7.42,0,.02-.01,.04-.02,.06,0,0-.07,.29-.28,.33m-2.15-24.83c0-1.2-.78-2.17-1.48-2.79-.77-.67-2.52-1.48-4.11-1.48-1.5,0-2.89,.29-4.07,1.05-1.43,.87-2.06,2.07-2.06,3.62,0,1.14,.95,2.54,2.14,3.21,1.11,.62,2.37,.99,3.8,.99s2.65-.42,3.69-1.07c1.31-.82,2.09-1.99,2.09-3.53"/><path class="cls-1" d="M167.05,47.4c-1.24,0-2.2-.99-2.2-2.2s.98-2.21,2.22-2.21,2.2,.99,2.2,2.2-.98,2.21-2.21,2.21m.01-4.17c-1.12,0-1.96,.88-1.96,1.97s.84,1.96,1.95,1.96,1.96-.88,1.96-1.97-.83-1.96-1.94-1.96m.54,2.23l.57,.84h-.6l-.5-.76h-.41v.76h-.52v-2.35h1.04c.56,0,.92,.29,.92,.77,0,.38-.21,.62-.51,.73m-.43-1.05h-.5v.69h.52c.26,0,.4-.14,.4-.34,0-.23-.16-.35-.42-.35"/></svg>