<?xml version="1.0" encoding="utf-8"?>
<!-- Generator: Adobe Illustrator 24.0.0, SVG Export Plug-In . SVG Version: 6.00 Build 0)  -->
<svg version="1.1" xmlns="http://www.w3.org/2000/svg" xmlns:xlink="http://www.w3.org/1999/xlink" x="0px" y="0px"
	 viewBox="0 0 1090 60" style="enable-background:new 0 0 1090 60;" xml:space="preserve">
<style type="text/css">
	.st0{fill:#CDCDCD;}
	.st1{fill-rule:evenodd;clip-rule:evenodd;fill:#CDCDCD;}
	.st2{fill:url(#design_2_);}
	.st3{fill:url(#code_2_);}
	.st4{fill:url(#motion_2_);}
</style>
<g id="name">
	<path id="name_1_" class="st0" d="M45,46l-2.1-6H29l-2.1,6h-7L33.1,9.4h6L52.3,46H45z M35.9,19.9l-5,14.2h10L36,19.9H35.9z
		 M54.9,18.3h6.8v17.1c0,3.5,1.3,4.8,4.2,4.8c3.3,0,5.5-1.6,5.5-5.3V18.3h6.8V46h-6.5v-2.7h-0.1c-1.7,2.3-4.1,3.4-7.2,3.4
		c-6.4,0-9.4-4.1-9.4-10.6V18.3z M88.4,35.3c0.5,3.9,2.6,5.8,6.2,5.8c3.3,0,5.5-1.1,5.5-3.1c0-0.8-0.4-1.4-1.1-1.8
		c-0.8-0.4-2.3-1-4.8-1.7c-0.7-0.2-1.1-0.3-1.5-0.4c-6.4-1.8-9.3-4-9.3-8.1c0-2.3,0.9-4.3,2.8-6c1.9-1.7,4.4-2.5,7.7-2.5
		c6.2,0,10.1,2.7,11.6,8.1l-5.6,1.7c-1-2.7-2.6-4.3-6-4.3c-2.7,0-4.3,1.1-4.3,2.6c0,0.8,0.5,1.4,1.4,1.8c0.9,0.4,3.2,1.1,6.9,2.2
		c3.2,0.9,5.4,2,6.6,3.3c1.2,1.3,1.8,3,1.8,5.1c0,2.2-1,4.2-2.9,6c-1.9,1.7-4.7,2.6-8.4,2.6c-3.8,0-6.8-0.9-8.9-2.9
		c-2-1.9-3.3-4.3-3.7-7L88.4,35.3z M111.7,24.1h-4.3v-5.7h4.4v-6.8h6.4v6.8h7v5.7h-6.9v11.4c0,2.9,0.7,4,3.7,4h2.2V46h-2.9
		c-3.7,0-6.3-0.8-7.7-2.3c-1.4-1.6-2.1-4.1-2.1-7.5V24.1z M129.5,14.3V7.9h6.8v6.4H129.5z M129.5,46V18.3h6.8V46H129.5z M142.5,46
		V18.3h6.5V21h0.1c1.5-1.9,4.4-3.4,7.3-3.4c6.1,0,9.8,3.9,9.8,10.3V46h-6.8V29.5c0-3.8-1.3-5.7-4.9-5.7c-3.3,0-5.3,2.1-5.3,5.3V46
		H142.5z M184.8,46V9.4h15.5c3.2,0,5.8,0.9,7.8,2.9c2,1.9,3,4.2,3,6.9c0,3.1-1.3,5.4-4,6.9v0.1c3.1,1.3,5.3,4.3,5.3,8.4
		c0,3.5-1,6.3-3.2,8.4c-2.1,2-5.6,3-10.5,3H184.8z M191.8,24.2h7.6c2.9,0,4.6-1.4,4.6-4c0-2.8-1.7-4.2-4.6-4.2h-7.6V24.2z
		 M191.8,39.5h8.5c3.3,0,5-1.6,5-4.9c0-3-1.9-4.7-5-4.7h-8.6V39.5z M217.1,46V18.3h6.4v2.9h0.1c1-2.1,3.2-3.4,5.7-3.4
		c0.9,0,1.7,0.2,2.5,0.5l-1,6.6c-0.8-0.3-1.5-0.4-2.1-0.4c-3.2,0-4.8,2.1-4.8,6.3V46H217.1z M251,46v-2.7h-0.1
		c0,0.1-1.9,3.4-7.5,3.4c-6.7,0-10-3.6-10-8.2c0-4.8,2.6-6.9,9.4-8.6c3.2-0.8,5.2-1.4,6-1.8c0.8-0.5,1.2-1.1,1.2-1.9
		c0-1.7-1.6-2.9-4.7-2.9c-3.7,0-5,1.8-5.8,4.5l-5.6-2.3c1.3-4.6,5.2-7.9,11.4-7.9c3.4,0,6.2,0.9,8.3,2.7c2.1,1.8,3.2,4.5,3.2,8.2V46
		H251z M239.9,38.1c0,1.9,1.4,2.8,4.1,2.8c4.1,0,6.2-1.8,6.2-4.1V32H250c-0.2,0.3-0.3,0.5-0.5,0.7c-0.3,0.3-2.1,1.1-5.4,1.9
		C240.6,35.5,239.9,36.6,239.9,38.1z M262.4,46V18.3h6.5V21h0.1c1.5-1.9,4.4-3.4,7.3-3.4c6.1,0,9.8,3.9,9.8,10.3V46h-6.8V29.5
		c0-3.8-1.3-5.7-4.9-5.7c-3.3,0-5.3,2.1-5.3,5.3V46H262.4z M292.2,46V7.9h6.8V21h0.1c1.1-1.8,4-3.4,6.7-3.4c5.9,0,9.7,3.9,9.7,10V46
		h-6.8V29.1c0-3.1-1.6-5.3-4.9-5.3c-3.1,0-4.8,1.9-4.8,4.8V46H292.2z M337.2,46v-2.7h-0.1c0,0.1-1.9,3.4-7.5,3.4
		c-6.7,0-10-3.6-10-8.2c0-4.8,2.6-6.9,9.4-8.6c3.2-0.8,5.2-1.4,6-1.8c0.8-0.5,1.2-1.1,1.2-1.9c0-1.7-1.6-2.9-4.7-2.9
		c-3.7,0-5,1.8-5.8,4.5l-5.6-2.3c1.3-4.6,5.2-7.9,11.4-7.9c3.4,0,6.2,0.9,8.3,2.7s3.2,4.5,3.2,8.2V46H337.2z M326.1,38.1
		c0,1.9,1.4,2.8,4.1,2.8c4.1,0,6.2-1.8,6.2-4.1V32h-0.1c-0.2,0.3-0.3,0.5-0.5,0.7c-0.3,0.3-2.1,1.1-5.4,1.9
		C326.9,35.5,326.1,36.6,326.1,38.1z M348.6,46V18.3h6.2V21h0.1c1.3-1.9,3.8-3.4,6.7-3.4c2.9,0,5.7,1.5,7,3.7h0.1
		c1.4-2.1,4.1-3.7,7.2-3.7c6.6,0,10.8,3.8,10.8,9.5V46h-6.2V28.4c0-2.7-1.5-4.6-4.8-4.6c-3.1,0-4.8,1.8-4.8,4.3V46h-6.2V28.4
		c0-2.7-1.7-4.6-4.8-4.6c-3.1,0-4.8,1.8-4.8,4.3V46H348.6z"/>
</g>
<g id="line">
	<rect id="line_1_" x="420.8" y="32.1" class="st1" width="142" height="3"/>
</g>
<g id="design">
	
		<linearGradient id="design_2_" gradientUnits="userSpaceOnUse" x1="548.1252" y1="-14.4049" x2="548.1252" y2="-166.0495" gradientTransform="matrix(6.123234e-17 1 -1 6.123234e-17 580.3167 -515.9338)">
		<stop  offset="0" style="stop-color:#6AB3F9"/>
		<stop  offset="1" style="stop-color:#84EFFC"/>
	</linearGradient>
	<path id="design_1_" class="st2" d="M611.9,45v-2.7h-0.1c-0.2,0.3-0.4,0.6-0.8,0.9c-0.3,0.4-1.1,0.9-2.4,1.6
		c-1.3,0.6-2.6,0.9-4.1,0.9c-3.7,0-6.6-1.3-8.8-4c-2.1-2.7-3.2-6.2-3.2-10.6c0-4.5,1.2-8,3.5-10.6c2.3-2.7,5.2-4,8.4-4
		c2.9,0,5.5,1.5,6.3,2.6l0.7,0.9h0.1V6.9h6.8V45H611.9z M611.5,28.6c0-3.3-2.2-6-6-6c-4,0-6.3,2.9-6.3,8.5c0,5.6,2.3,8.5,6.3,8.5
		c3.7,0,6-2.7,6-6V28.6z M647.2,39.6c-2.8,4.1-6.6,6.2-11.4,6.2c-3.9,0-7-1.3-9.4-4c-2.5-2.7-3.7-6.2-3.7-10.6
		c0-4.4,1.2-7.9,3.6-10.6c2.5-2.7,5.5-4,9.2-4c3.7,0,6.7,1.4,9.1,4c2.4,2.7,3.6,6.2,3.6,10.6v2h-18.6c0.2,4.2,2.4,6.6,6.1,6.6
		c3.1,0,5-1.7,6.8-4.3L647.2,39.6z M641.6,28.1c-0.4-3.5-2.5-5.6-6.1-5.6c-3.3,0-5.6,2.5-5.9,5.6H641.6z M656.6,34.3
		c0.5,3.9,2.6,5.8,6.2,5.8c3.3,0,5.5-1.1,5.5-3.1c0-0.8-0.4-1.4-1.1-1.8c-0.8-0.4-2.3-1-4.8-1.7c-0.7-0.2-1.1-0.3-1.5-0.4
		c-6.4-1.8-9.3-4-9.3-8.1c0-2.3,0.9-4.3,2.8-6c1.9-1.7,4.4-2.5,7.7-2.5c6.2,0,10.1,2.7,11.6,8.1l-5.6,1.7c-1-2.7-2.6-4.3-6-4.3
		c-2.7,0-4.3,1.1-4.3,2.6c0,0.8,0.5,1.4,1.4,1.8c0.9,0.4,3.2,1.1,6.9,2.2c3.2,0.9,5.4,2,6.6,3.3c1.2,1.3,1.8,3,1.8,5.1
		c0,2.2-1,4.2-2.9,6c-1.9,1.7-4.7,2.6-8.4,2.6c-3.8,0-6.8-0.9-8.9-2.9c-2-1.9-3.3-4.3-3.7-7L656.6,34.3z M678.5,13.3V6.9h6.8v6.4
		H678.5z M678.5,45V17.3h6.8V45H678.5z M696.8,47.1c1.6,3.1,3.4,4.5,6.6,4.5c3.5,0,5.8-1.8,5.8-5.8v-3.5h-0.1
		c-1,1.9-3.9,3.4-6.9,3.4c-3.5,0-6.5-1.3-8.9-3.9c-2.4-2.6-3.6-6.2-3.6-10.8c0-4.5,1.3-8,3.7-10.6c2.5-2.7,5.4-4,8.7-4
		c3.2,0,5.6,1.1,7.3,3.4h0.1v-2.7h6.5V45c0,4-1.2,7.2-3.5,9.3s-5.4,3.2-9.1,3.2c-5.8,0-9.9-2.7-11.7-6.9L696.8,47.1z M709.3,28.3
		c0-3.1-2.3-5.6-6-5.6c-4,0-6.8,3-6.8,8.5c0,5.5,2.8,8.5,6.8,8.5c3.6,0,6-2.5,6-5.7V28.3z M722.1,45V17.3h6.5V20h0.1
		c1.5-1.9,4.4-3.4,7.3-3.4c6.1,0,9.8,3.9,9.8,10.3V45H739V28.5c0-3.8-1.3-5.7-4.9-5.7c-3.3,0-5.3,2.1-5.3,5.3V45H722.1z"/>
</g>
<g id="code">
	
		<linearGradient id="code_2_" gradientUnits="userSpaceOnUse" x1="542.2527" y1="-308.3712" x2="542.2527" y2="-197.2846" gradientTransform="matrix(6.123234e-17 1 -1 6.123234e-17 580.3167 -515.9338)">
		<stop  offset="0" style="stop-color:#EE93C0"/>
		<stop  offset="1" style="stop-color:#E73FD1"/>
	</linearGradient>
	<path id="code_1_" class="st3" d="M801.3,35.5c-1.3,6.6-5.6,10.3-12,10.3c-3.8,0-6.8-1.3-9.3-3.9c-2.4-2.6-3.6-6.2-3.6-10.8
		c0-4.5,1.3-8.1,3.7-10.7c2.5-2.6,5.6-3.9,9.2-3.9c6.2,0,10.6,3.9,11.6,10l-6.3,1.2c-0.7-3.4-2.5-5.1-5.3-5.1
		c-3.8,0-6.3,2.9-6.3,8.5c0,5.6,2.3,8.5,6.3,8.5c3.1,0,4.9-1.9,5.5-5.8L801.3,35.5z M807.4,20.4c2.5-2.6,5.6-3.9,9.2-3.9
		c3.6,0,6.7,1.3,9.2,3.9c2.5,2.6,3.8,6.2,3.8,10.7c0,4.6-1.2,8.2-3.7,10.8c-2.5,2.6-5.5,3.9-9.3,3.9c-3.8,0-6.8-1.3-9.3-3.9
		c-2.5-2.6-3.7-6.2-3.7-10.8C803.7,26.6,804.9,23.1,807.4,20.4z M816.6,39.7c1.9,0,3.5-0.7,4.6-2.2c1.1-1.5,1.7-3.6,1.7-6.3
		c0-2.7-0.6-4.8-1.7-6.3c-1.1-1.5-2.6-2.2-4.5-2.2c-1.9,0-3.4,0.7-4.6,2.2c-1.1,1.5-1.7,3.5-1.7,6.3c0,2.8,0.6,4.9,1.7,6.3
		S814.7,39.7,816.6,39.7z M851.6,45v-2.7h-0.1c-0.2,0.3-0.4,0.6-0.8,0.9c-0.3,0.4-1.1,0.9-2.4,1.6c-1.3,0.6-2.6,0.9-4.1,0.9
		c-3.7,0-6.6-1.3-8.8-4c-2.1-2.7-3.2-6.2-3.2-10.6c0-4.5,1.2-8,3.5-10.6c2.3-2.7,5.2-4,8.4-4c2.9,0,5.5,1.5,6.3,2.6l0.7,0.9h0.1V6.9
		h6.8V45H851.6z M851.2,28.6c0-3.3-2.2-6-6-6c-4,0-6.3,2.9-6.3,8.5c0,5.6,2.3,8.5,6.3,8.5c3.7,0,6-2.7,6-6V28.6z M886.9,39.6
		c-2.8,4.1-6.6,6.2-11.4,6.2c-3.9,0-7-1.3-9.4-4c-2.5-2.7-3.7-6.2-3.7-10.6c0-4.4,1.2-7.9,3.6-10.6c2.5-2.7,5.5-4,9.2-4
		c3.7,0,6.7,1.4,9.1,4c2.4,2.7,3.6,6.2,3.6,10.6v2h-18.6c0.2,4.2,2.4,6.6,6.1,6.6c3.1,0,5-1.7,6.8-4.3L886.9,39.6z M881.3,28.1
		c-0.4-3.5-2.5-5.6-6.1-5.6c-3.3,0-5.6,2.5-5.9,5.6H881.3z"/>
</g>
<g id="motion">
	
		<linearGradient id="motion_2_" gradientUnits="userSpaceOnUse" x1="542.2527" y1="-496.5894" x2="542.2527" y2="-340.2258" gradientTransform="matrix(6.123234e-17 1 -1 6.123234e-17 580.3167 -515.9338)">
		<stop  offset="0" style="stop-color:#7BFA65"/>
		<stop  offset="0.9899" style="stop-color:#66D4A7"/>
	</linearGradient>
	<path id="motion_1_" class="st4" d="M919.3,45V17.3h6.2V20h0.1c1.3-1.9,3.8-3.4,6.7-3.4c2.9,0,5.7,1.5,7,3.7h0.1
		c1.4-2.1,4.1-3.7,7.2-3.7c6.6,0,10.8,3.8,10.8,9.5V45h-6.2V27.4c0-2.7-1.5-4.6-4.8-4.6c-3.1,0-4.8,1.8-4.8,4.3V45h-6.2V27.4
		c0-2.7-1.7-4.6-4.8-4.6c-3.1,0-4.8,1.8-4.8,4.3V45H919.3z M965.3,20.4c2.5-2.6,5.6-3.9,9.2-3.9c3.6,0,6.7,1.3,9.2,3.9
		c2.5,2.6,3.8,6.2,3.8,10.7c0,4.6-1.2,8.2-3.7,10.8c-2.5,2.6-5.5,3.9-9.3,3.9c-3.8,0-6.8-1.3-9.3-3.9c-2.5-2.6-3.7-6.2-3.7-10.8
		C961.6,26.6,962.8,23.1,965.3,20.4z M974.5,39.7c1.9,0,3.5-0.7,4.6-2.2c1.1-1.5,1.7-3.6,1.7-6.3c0-2.7-0.6-4.8-1.7-6.3
		c-1.1-1.5-2.6-2.2-4.5-2.2c-1.9,0-3.4,0.7-4.6,2.2c-1.1,1.5-1.7,3.5-1.7,6.3c0,2.8,0.6,4.9,1.7,6.3S972.6,39.7,974.5,39.7z
		 M993.3,23.1H989v-5.7h4.4v-6.8h6.4v6.8h7v5.7h-6.9v11.4c0,2.9,0.7,4,3.7,4h2.2V45h-2.9c-3.7,0-6.3-0.8-7.7-2.3
		c-1.4-1.6-2.1-4.1-2.1-7.5V23.1z M1011.1,13.3V6.9h6.8v6.4H1011.1z M1011.1,45V17.3h6.8V45H1011.1z M1026,20.4
		c2.5-2.6,5.6-3.9,9.2-3.9c3.6,0,6.7,1.3,9.2,3.9c2.5,2.6,3.8,6.2,3.8,10.7c0,4.6-1.2,8.2-3.7,10.8c-2.5,2.6-5.5,3.9-9.3,3.9
		c-3.8,0-6.8-1.3-9.3-3.9c-2.5-2.6-3.7-6.2-3.7-10.8C1022.3,26.6,1023.5,23.1,1026,20.4z M1035.2,39.7c1.9,0,3.5-0.7,4.6-2.2
		c1.1-1.5,1.7-3.6,1.7-6.3c0-2.7-0.6-4.8-1.7-6.3c-1.1-1.5-2.6-2.2-4.5-2.2c-1.9,0-3.4,0.7-4.6,2.2c-1.1,1.5-1.7,3.5-1.7,6.3
		c0,2.8,0.6,4.9,1.7,6.3S1033.3,39.7,1035.2,39.7z M1052.6,45V17.3h6.5V20h0.1c1.5-1.9,4.4-3.4,7.3-3.4c6.1,0,9.8,3.9,9.8,10.3V45
		h-6.8V28.5c0-3.8-1.3-5.7-4.9-5.7c-3.3,0-5.3,2.1-5.3,5.3V45H1052.6z"/>
</g>
</svg>
